<?xml version="1.0" standalone="no"?>
<!DOCTYPE svg PUBLIC "-//W3C//DTD SVG 1.1//EN" "http://www.w3.org/Graphics/SVG/1.1/DTD/svg11.dtd" >
<svg xmlns="http://www.w3.org/2000/svg" xmlns:xlink="http://www.w3.org/1999/xlink" version="1.1">
<metadata>
Created by FontForge 20170731 at Fri Jun 11 01:33:27 2021
 By Aleksey,,,
Copyright 2018 Adobe Systems Incorporated. All rights reserved.
</metadata>
<defs>
<font id="AzonixRegular" horiz-adv-x="1638" >
  <font-face 
    font-family="Azonix"
    font-weight="400"
    font-stretch="normal"
    units-per-em="2048"
    panose-1="0 0 0 0 0 0 0 0 0 0"
    ascent="1638"
    descent="-410"
    x-height="1432"
    cap-height="1434"
    bbox="18 -375 1901 1616"
    underline-thickness="0"
    underline-position="0"
    unicode-range="U+000A-20AC"
  />
<missing-glyph horiz-adv-x="1079" 
d="M102 1434h875v-1434h-875v1434zM160 1393l379 -633l381 633h-760zM514 717l-369 614v-1231zM541 674l-379 -631h758zM565 717l371 -621v1239z" />
    <glyph glyph-name=".notdef" horiz-adv-x="1079" 
d="M102 1434h875v-1434h-875v1434zM160 1393l379 -633l381 633h-760zM514 717l-369 614v-1231zM541 674l-379 -631h758zM565 717l371 -621v1239z" />
    <glyph glyph-name=".null" horiz-adv-x="204" 
 />
    <glyph glyph-name=".null" horiz-adv-x="204" 
 />
    <glyph glyph-name="nonmarkingreturn" horiz-adv-x="682" 
 />
    <glyph glyph-name="controlLF" unicode="&#xa;" horiz-adv-x="204" 
 />
    <glyph glyph-name="controlCR" unicode="&#xd;" horiz-adv-x="204" 
 />
    <glyph glyph-name="space" unicode=" " horiz-adv-x="997" 
 />
    <glyph glyph-name="exclam" unicode="!" horiz-adv-x="460" 
d="M358 -14h-256v256h256v-256zM102 1419h256v-344l-67 -729h-121l-68 729v344z" />
    <glyph glyph-name="quotedbl" unicode="&#x22;" horiz-adv-x="786" 
d="M684 1032h-256v504h256v-504zM356 1032h-256v504h256v-504z" />
    <glyph glyph-name="numbersign" unicode="#" horiz-adv-x="1644" 
d="M1210 840l-51 -271l-2 -8h283l-49 -248l-2 -8h-283l-64 -321h-260v0l64 321h-201l-63 -321h-260v0l14 69l24 131l25 121h-281l13 62l33 172l6 24h280l2 12l54 265v0h-281l51 254v2v0h281v0v0l63 321h260l-63 -321h201l63 321h258l-63 -321h282l-51 -256h-283zM952 840
l2 2h-200l-54 -271l-2 -8h199l2 8z" />
    <glyph glyph-name="dollar" unicode="$" horiz-adv-x="1560" 
d="M1458 944h-256v8q0 54 -38.5 92.5t-92.5 38.5h-162v-270h97h12h53q157 0 268 -108q31 -31 50 -62q67 -95 67 -219v-8q0 -160 -112.5 -273.5t-272.5 -113.5h-164v-258h-256v258h-162q-160 0 -273.5 113.5t-113.5 273.5v8h256v-8q0 -54 38.5 -92.5t92.5 -38.5h162v270h-96
h-12h-54q-156 0 -268 109q-30 30 -49 61q-68 96 -68 219v8q0 160 112.5 273.5t272.5 113.5h164v277h256v-277h162q160 0 273.5 -113.5t113.5 -273.5v-8zM651 813v270h-164q-54 0 -92.5 -38.5t-38.5 -92.5v-8q0 -54 38.5 -92.5t92.5 -38.5h164zM1071 557h-164v-270h164
q54 0 92.5 38.5t38.5 92.5v8q0 54 -38.5 92.5t-92.5 38.5z" />
    <glyph glyph-name="percent" unicode="%" horiz-adv-x="1900" 
d="M1171 1403h289l-753 -1434h-289zM1432 696q151 0 256.5 -105.5t105.5 -256.5t-105.5 -257t-256.5 -106t-257 106t-106 257t106 256.5t257 105.5zM1432 225q44 0 76 32.5t32 76.5t-32 76t-76 32t-76.5 -32t-32.5 -76t32.5 -76.5t76.5 -32.5zM827 1040
q0 -151 -105.5 -256.5t-256.5 -105.5t-257 105.5t-106 256.5t106 257t257 106t256.5 -106t105.5 -257zM356 1040q0 -44 32.5 -76t76.5 -32t76 32t32 76t-32 76.5t-76 32.5t-76.5 -32.5t-32.5 -76.5z" />
    <glyph glyph-name="ampersand" unicode="&#x26;" horiz-adv-x="1619" 
d="M524 846l996 6v-258h-256v-588h-740q-173 0 -296.5 123.5t-123.5 296.5t119 295q-119 122 -119 295t123.5 296.5t296.5 123.5h740v-256h-740q-68 0 -117 -49t-49 -117q0 -69 49 -118.5t117 -49.5zM1010 262v334h-484q-68 0 -117 -49.5t-49 -118.5q0 -68 49 -117t117 -49
h484z" />
    <glyph glyph-name="quotesingle" unicode="'" horiz-adv-x="460" 
d="M358 1028h-256v508h256v-508z" />
    <glyph glyph-name="parenleft" unicode="(" horiz-adv-x="819" 
d="M717 1520h-2q-49 -55 -95.5 -118t-106.5 -175t-98 -228.5t-52.5 -274.5t11 -317t111.5 -352.5t232 -384.5h-314q-111 170 -180.5 343t-96.5 322.5t-23.5 298.5t29 270.5t70.5 241t92 206t103 168.5h320z" />
    <glyph glyph-name="parenright" unicode=")" horiz-adv-x="819" 
d="M422 1520h-2q56 -82 103 -168.5t92 -206t70.5 -241t29 -270.5t-23.5 -298.5t-96.5 -322.5t-180.5 -343h-314q146 191 232 384.5t111.5 352.5t11 317t-52.5 274.5t-98 228.5t-106.5 175t-95.5 118h320z" />
    <glyph glyph-name="asterisk" unicode="*" horiz-adv-x="792" 
d="M477 1206h-2q24 -27 71 -83t70 -83q-18 -13 -54.5 -39t-55.5 -40q-18 32 -55 95.5t-56 94.5q-18 -32 -54.5 -95.5t-55.5 -94.5q-19 13 -56 39.5t-55 39.5q23 27 70 83t71 83q-36 8 -107.5 24.5t-107.5 24.5q7 22 21.5 67.5t21.5 68.5q34 -15 101.5 -43t101.5 -43
q-3 36 -9 107.5t-9 107.5h141q-20 -183 -23 -215q34 15 101.5 43t101.5 43q7 -22 21.5 -67.5t21.5 -68.5q-36 -8 -107.5 -24.5t-107.5 -24.5z" />
    <glyph glyph-name="plus" unicode="+" horiz-adv-x="1175" 
d="M717 805h358v-256h-358v-359h-256v359h-359v256h359v358h256v-358z" />
    <glyph glyph-name="comma" unicode="," horiz-adv-x="460" 
d="M102 242h254v-512h-127l-127 256v256z" />
    <glyph glyph-name="hyphen" unicode="-" horiz-adv-x="1175" 
d="M1073 549h-971v256h971v-256z" />
    <glyph glyph-name="period" unicode="." horiz-adv-x="460" 
d="M358 -14h-256v256h256v-256z" />
    <glyph glyph-name="slash" unicode="/" horiz-adv-x="876" 
d="M508 1403h266l-147 -522l-72 -256l-186 -656h-267l187 656l71 256z" />
    <glyph glyph-name="zero" unicode="0" horiz-adv-x="1574" 
d="M1008 1178h-443q-86 0 -147.5 -61.5t-61.5 -147.5v-506q0 -86 61.5 -147.5t147.5 -61.5h443q86 0 147.5 61.5t61.5 147.5v506q0 86 -61.5 147.5t-147.5 61.5zM565 1434h443q192 0 327 -135.5t135 -327.5v-506q0 -192 -135 -327.5t-327 -135.5h-443q-192 0 -327.5 135.5
t-135.5 327.5v506q0 192 135.5 327.5t327.5 135.5z" />
    <glyph glyph-name="one" unicode="1" horiz-adv-x="692" 
d="M590 952l4 4v-974h-256v1001q-9 67 -57.5 116t-116.5 58h-25h-33v254h31v0h25v-2q94 -6 174 -47q68 -34 121.5 -88t85.5 -121q25 -56 35 -96q12 -49 12 -105z" />
    <glyph glyph-name="two" unicode="2" 
d="M358 256l1172 -4v-256h-1010h-420v422q0 88 35 166q46 112 147 183t226 75h614h6q65 6 108.5 54t43.5 112q0 69 -48.5 118.5t-117.5 49.5h-1010v256h1010q175 0 298.5 -123.5t123.5 -298.5q0 -88 -35 -166q-30 -71 -86 -127q-120 -123 -289 -129h-6h-6h-606
q-63 -6 -106.5 -54t-43.5 -112v-166z" />
    <glyph glyph-name="three" unicode="3" 
d="M1536 1006l-2 -7q0 -172 -119 -294q119 -122 119 -295q0 -175 -123.5 -298.5t-298.5 -123.5h-1010v256h1010q69 0 118.5 49.5t49.5 118.5q0 67 -46 116t-112 52h-6h-756v256h756h6q66 3 113 52t47 116q0 69 -49.5 118t-118.5 49h-1010v256h1010q175 0 298.5 -123
t123.5 -298z" />
    <glyph glyph-name="four" unicode="4" 
d="M1280 1434h254v-1434h-256v590h-756q-106 0 -192 47q-104 53 -167 153.5t-63 221.5v422h256v-422q0 -69 49.5 -118.5t118.5 -49.5h756v590z" />
    <glyph glyph-name="five" unicode="5" 
d="M1501 584l-2 -2q35 -78 35 -166q0 -175 -123.5 -298.5t-298.5 -123.5h-1010v256h1010q69 0 117.5 49.5t48.5 118.5q0 65 -42.5 112.5t-105.5 53.5h-1028v843h1313v-256h-1057v-331h756h14q124 -3 225.5 -73.5t147.5 -182.5z" />
    <glyph glyph-name="six" unicode="6" 
d="M1415 717l-2 6q119 -122 119 -295q0 -175 -123.5 -298.5t-298.5 -123.5h-588q-130 0 -235.5 71t-153.5 187q-33 84 -33 166v588q0 156 107 276q54 60 123 97q86 47 192 47h891v-256h-891q-69 0 -118.5 -49.5t-49.5 -118.5v-201q81 33 160 33h2h6h588h6h2q174 -3 297 -129
v0zM1110 262h-2q69 0 118.5 49.5t49.5 118.5q0 67 -46 116t-112 52h-2h-6h-588h-6h-2q-66 -3 -113 -52t-47 -116q0 -69 49.5 -118.5t118.5 -49.5h588z" />
    <glyph glyph-name="seven" unicode="7" horiz-adv-x="1386" 
d="M1237 1178v2q47 -92 47 -201v-977h-256v1002q-9 67 -57.5 116t-116.5 58h-752v256h727q107 0 201 -48q141 -71 207 -208z" />
    <glyph glyph-name="eight" unicode="8" 
d="M1415 717l4 -2q119 -122 119 -295q0 -175 -123.5 -298.5t-298.5 -123.5h-588q-130 0 -235.5 71t-153.5 187q-33 84 -33 166q0 173 119 295q-60 60 -88 129q-33 84 -33 166q0 173 119 295q59 61 135 96q81 33 160 33h6h588h6q174 -3 297 -129q119 -122 119 -295t-119 -295
zM1116 254l-8 -2q69 0 118.5 49.5t49.5 118.5q0 67 -46 116t-112 52h-6h-588h-6q-66 -3 -112 -51.5t-46 -114.5q0 -69 49.5 -118.5t118.5 -49.5h588zM1112 840h-6q68 2 116 50.5t48 115.5t-46 116t-112 52h-604q-66 -3 -113 -52t-47 -116t48 -115.5t116 -50.5h6h588h6z" />
    <glyph glyph-name="nine" unicode="9" 
d="M1501 1176h2q33 -84 33 -166v-588q0 -91 -35.5 -171.5t-99.5 -139.5q-47 -44 -94 -68q-86 -47 -193 -47h-891v256h891q69 0 118.5 49.5t49.5 118.5v201q-81 -33 -160 -33h-2h-6h-588h-6h-2q-174 3 -297 129q-119 122 -119 295q0 175 123.5 298.5t298.5 123.5h588
q130 0 235.5 -71t153.5 -187zM526 1178q-69 0 -118.5 -49.5t-49.5 -118.5q0 -67 47 -116t113 -52h2h6h588h6h2q66 3 113 52t47 116q0 69 -49.5 118.5t-118.5 49.5h-588z" />
    <glyph glyph-name="colon" unicode=":" horiz-adv-x="460" 
d="M358 -14h-256v256h256v-256zM358 768h-256v256h256v-256z" />
    <glyph glyph-name="semicolon" unicode=";" horiz-adv-x="460" 
d="M102 -14l-2 256h256v-512h-127zM356 768h-256v256h256v-256z" />
    <glyph glyph-name="less" unicode="&#x3c;" horiz-adv-x="1175" 
d="M848 813l-131 -45l-232 -82l232 -82l131 -47l227 -80v-272l-358 127l-256 90l-359 127v272l359 127l256 90l358 127v-272z" />
    <glyph glyph-name="equal" unicode="=" horiz-adv-x="1175" 
d="M1073 752h-971v256h971v-256zM1073 319h-971v256h971v-256z" />
    <glyph glyph-name="greater" unicode="&#x3e;" horiz-adv-x="1175" 
d="M717 946l358 -129v-272l-358 -127l-256 -90l-359 -127v272l228 80l131 47l231 82l-231 82l-131 47l-228 80v272l359 -127z" />
    <glyph glyph-name="question" unicode="?" horiz-adv-x="1560" 
d="M907 -14h-256v256h256v-256zM1409 1163v4q47 -92 47 -202q0 -189 -134 -323t-323 -134h-92v-160h-256v414h348q83 0 142 59t59 142t-59 141.5t-142 58.5h-440q-83 0 -142 -58.5t-59 -141.5h-256q0 106 48 200q56 116 166 186t243 70h440q133 0 243.5 -70t166.5 -186z" />
    <glyph glyph-name="at" unicode="@" 
d="M819 1419l715 2v-921h-715v0q-85 0 -145 60t-60 145t60 144.5t145 59.5v0h205v-155h256v409h-461q-125 0 -231 -62t-168 -168t-62 -231q0 -190 135 -325t326 -135h717v-256h-717q-146 0 -278.5 57t-228.5 152.5t-153 228.5t-57 278t57 278t153 229t229 153t278 57z" />
    <glyph glyph-name="A" unicode="A" horiz-adv-x="1505" 
d="M1354 256l131 -256h-287l-131 256l-313 614l-314 -614l-131 -256h-286l131 256l600 1178z" />
    <glyph glyph-name="A" unicode="&#xc5;" horiz-adv-x="1505" 
d="M1354 256l131 -256h-287l-131 256l-313 614l-314 -614l-131 -256h-286l131 256l600 1178z" />
    <glyph glyph-name="A" unicode="&#xc4;" horiz-adv-x="1505" 
d="M1354 256l131 -256h-287l-131 256l-313 614l-314 -614l-131 -256h-286l131 256l600 1178z" />
    <glyph glyph-name="A" unicode="&#xc3;" horiz-adv-x="1505" 
d="M1354 256l131 -256h-287l-131 256l-313 614l-314 -614l-131 -256h-286l131 256l600 1178z" />
    <glyph glyph-name="A" unicode="&#xc2;" horiz-adv-x="1505" 
d="M1354 256l131 -256h-287l-131 256l-313 614l-314 -614l-131 -256h-286l131 256l600 1178z" />
    <glyph glyph-name="A" unicode="&#xc1;" horiz-adv-x="1505" 
d="M1354 256l131 -256h-287l-131 256l-313 614l-314 -614l-131 -256h-286l131 256l600 1178z" />
    <glyph glyph-name="A" unicode="&#xc0;" horiz-adv-x="1505" 
d="M1354 256l131 -256h-287l-131 256l-313 614l-314 -614l-131 -256h-286l131 256l600 1178z" />
    <glyph glyph-name="B" unicode="B" horiz-adv-x="1587" 
d="M1331 838q94 -63 149.5 -163t55.5 -218q0 -189 -134 -323t-323 -134h-977v0v1434h904q160 0 273.5 -113.5t113.5 -273.5q0 -115 -62 -209zM358 1178v-263h650q54 0 92.5 39t38.5 93t-38.5 92.5t-92.5 38.5h-650zM1079 256v2q83 0 142 59t59 142t-59 141.5t-142 58.5h-721
v-403h721z" />
    <glyph glyph-name="C" unicode="C" horiz-adv-x="1617" 
d="M799 1178q-125 0 -231 -62t-168 -168t-62 -231t62 -231t168 -168t231 -62h717v-256h-717q-145 0 -278 57t-229 153t-153 229t-57 278t57 278t153 229t229 153t278 57h717v-256h-717z" />
    <glyph glyph-name="C" unicode="&#xc7;" horiz-adv-x="1617" 
d="M799 1178q-125 0 -231 -62t-168 -168t-62 -231t62 -231t168 -168t231 -62h717v-256h-717q-145 0 -278 57t-229 153t-153 229t-57 278t57 278t153 229t229 153t278 57h717v-256h-717z" />
    <glyph glyph-name="D" unicode="D" 
d="M102 1434l715 -2q146 0 278.5 -56.5t228.5 -152.5t153 -228.5t57 -277.5q0 -130 -44.5 -248.5t-125.5 -214.5q-12 -14 -41 -43q-98 -100 -228.5 -155.5t-275.5 -55.5h-717v1434zM356 1176v-922h461q125 0 231 62t168 168t62 231t-62 231t-168 168t-231 62h-461z" />
    <glyph glyph-name="E" unicode="E" 
d="M489 1178q-54 0 -92.5 -38.5t-38.5 -92.5v-134h922v-256h-922v-270q0 -54 38.5 -92.5t92.5 -38.5h1047v-256h-1047q-160 0 -272.5 113.5t-112.5 273.5v660q0 160 112.5 273.5t272.5 113.5h1047v-256h-1047z" />
    <glyph glyph-name="E" unicode="&#xcb;" 
d="M489 1178q-54 0 -92.5 -38.5t-38.5 -92.5v-134h922v-256h-922v-270q0 -54 38.5 -92.5t92.5 -38.5h1047v-256h-1047q-160 0 -272.5 113.5t-112.5 273.5v660q0 160 112.5 273.5t272.5 113.5h1047v-256h-1047z" />
    <glyph glyph-name="E" unicode="&#xca;" 
d="M489 1178q-54 0 -92.5 -38.5t-38.5 -92.5v-134h922v-256h-922v-270q0 -54 38.5 -92.5t92.5 -38.5h1047v-256h-1047q-160 0 -272.5 113.5t-112.5 273.5v660q0 160 112.5 273.5t272.5 113.5h1047v-256h-1047z" />
    <glyph glyph-name="E" unicode="&#xc9;" 
d="M489 1178q-54 0 -92.5 -38.5t-38.5 -92.5v-134h922v-256h-922v-270q0 -54 38.5 -92.5t92.5 -38.5h1047v-256h-1047q-160 0 -272.5 113.5t-112.5 273.5v660q0 160 112.5 273.5t272.5 113.5h1047v-256h-1047z" />
    <glyph glyph-name="E" unicode="&#xc8;" 
d="M489 1178q-54 0 -92.5 -38.5t-38.5 -92.5v-134h922v-256h-922v-270q0 -54 38.5 -92.5t92.5 -38.5h1047v-256h-1047q-160 0 -272.5 113.5t-112.5 273.5v660q0 160 112.5 273.5t272.5 113.5h1047v-256h-1047z" />
    <glyph glyph-name="F" unicode="F" 
d="M489 1434h1049v-256h-1046q-54 0 -93 -38.5t-39 -92.5v-134h922v-256h-924v-657h-254v1047q0 160 112.5 273.5t272.5 113.5z" />
    <glyph glyph-name="G" unicode="G" 
d="M819 1178q-125 0 -231 -62t-168 -168t-62 -231t62 -231t168 -168t231 -62h461v274h-461v256h717v-786h-717q-145 0 -278 57t-229 153t-153 229t-57 278t57 278t153 229t229 153t278 57h717v-256h-717z" />
    <glyph glyph-name="H" unicode="H" 
d="M1280 1434h256v-1434h-256v657h-922v-657h-256v1434h256v-521h922v521z" />
    <glyph glyph-name="I" unicode="I" horiz-adv-x="460" 
d="M358 0h-256v1434h256v-1434z" />
    <glyph glyph-name="I" unicode="&#xcf;" horiz-adv-x="460" 
d="M358 0h-256v1434h256v-1434z" />
    <glyph glyph-name="I" unicode="&#xce;" horiz-adv-x="460" 
d="M358 0h-256v1434h256v-1434z" />
    <glyph glyph-name="I" unicode="&#xcd;" horiz-adv-x="460" 
d="M358 0h-256v1434h256v-1434z" />
    <glyph glyph-name="I" unicode="&#xcc;" horiz-adv-x="460" 
d="M358 0h-256v1434h256v-1434z" />
    <glyph glyph-name="J" unicode="J" 
d="M1280 1434h256v-1047q0 -160 -113.5 -272.5t-273.5 -112.5h-660q-160 0 -273.5 112.5t-113.5 272.5v268h256v-268q0 -54 38.5 -92.5t92.5 -38.5h660q54 0 92.5 38.5t38.5 92.5v1047z" />
    <glyph glyph-name="K" unicode="K" 
d="M1536 1434l-627 -576l621 -858h-316l-495 684l-363 -330v-354h-256v1434h256v-734l211 193l191 174l399 367h379z" />
    <glyph glyph-name="L" unicode="L" horiz-adv-x="1386" 
d="M532 256l752 -2v-256h-727q-109 0 -201 47q-139 70 -206 209q-48 94 -48 201v977h256v-1002q9 -68 57.5 -116.5t116.5 -57.5z" />
    <glyph glyph-name="M" unicode="M" 
d="M1280 1237l256 197v-1434h-256v913l-252 -192l-209 -162l-209 162l-252 192v-913h-256v1434l256 -197l461 -354z" />
    <glyph glyph-name="N" unicode="N" 
d="M1280 1434l256 -2v-1434l-256 197l-922 710v-907h-256v1429l256 -196l922 -711v914z" />
    <glyph glyph-name="N" unicode="&#xd1;" 
d="M1280 1434l256 -2v-1434l-256 197l-922 710v-907h-256v1429l256 -196l922 -711v914z" />
    <glyph glyph-name="O" unicode="O" horiz-adv-x="1536" 
d="M768 1434q145 0 278 -57t229 -153t153 -229t57 -278t-57 -278t-153 -229t-229 -153t-278 -57t-278 57t-229 153t-153 229t-57 278t57 278t153 229t229 153t278 57zM768 256q125 0 231 62t168 168t62 231t-62 231t-168 168t-231 62t-231 -62t-168 -168t-62 -231t62 -231
t168 -168t231 -62z" />
    <glyph glyph-name="O" unicode="&#xd8;" horiz-adv-x="1536" 
d="M768 1434q145 0 278 -57t229 -153t153 -229t57 -278t-57 -278t-153 -229t-229 -153t-278 -57t-278 57t-229 153t-153 229t-57 278t57 278t153 229t229 153t278 57zM768 256q125 0 231 62t168 168t62 231t-62 231t-168 168t-231 62t-231 -62t-168 -168t-62 -231t62 -231
t168 -168t231 -62z" />
    <glyph glyph-name="O" unicode="&#xd6;" horiz-adv-x="1536" 
d="M768 1434q145 0 278 -57t229 -153t153 -229t57 -278t-57 -278t-153 -229t-229 -153t-278 -57t-278 57t-229 153t-153 229t-57 278t57 278t153 229t229 153t278 57zM768 256q125 0 231 62t168 168t62 231t-62 231t-168 168t-231 62t-231 -62t-168 -168t-62 -231t62 -231
t168 -168t231 -62z" />
    <glyph glyph-name="O" unicode="&#xd5;" horiz-adv-x="1536" 
d="M768 1434q145 0 278 -57t229 -153t153 -229t57 -278t-57 -278t-153 -229t-229 -153t-278 -57t-278 57t-229 153t-153 229t-57 278t57 278t153 229t229 153t278 57zM768 256q125 0 231 62t168 168t62 231t-62 231t-168 168t-231 62t-231 -62t-168 -168t-62 -231t62 -231
t168 -168t231 -62z" />
    <glyph glyph-name="O" unicode="&#xd4;" horiz-adv-x="1536" 
d="M768 1434q145 0 278 -57t229 -153t153 -229t57 -278t-57 -278t-153 -229t-229 -153t-278 -57t-278 57t-229 153t-153 229t-57 278t57 278t153 229t229 153t278 57zM768 256q125 0 231 62t168 168t62 231t-62 231t-168 168t-231 62t-231 -62t-168 -168t-62 -231t62 -231
t168 -168t231 -62z" />
    <glyph glyph-name="O" unicode="&#xd3;" horiz-adv-x="1536" 
d="M768 1434q145 0 278 -57t229 -153t153 -229t57 -278t-57 -278t-153 -229t-229 -153t-278 -57t-278 57t-229 153t-153 229t-57 278t57 278t153 229t229 153t278 57zM768 256q125 0 231 62t168 168t62 231t-62 231t-168 168t-231 62t-231 -62t-168 -168t-62 -231t62 -231
t168 -168t231 -62z" />
    <glyph glyph-name="O" unicode="&#xd2;" horiz-adv-x="1536" 
d="M768 1434q145 0 278 -57t229 -153t153 -229t57 -278t-57 -278t-153 -229t-229 -153t-278 -57t-278 57t-229 153t-153 229t-57 278t57 278t153 229t229 153t278 57zM768 256q125 0 231 62t168 168t62 231t-62 231t-168 168t-231 62t-231 -62t-168 -168t-62 -231t62 -231
t168 -168t231 -62z" />
    <glyph glyph-name="P" unicode="P" horiz-adv-x="1495" 
d="M1280 1321l2 -4q113 -113 113 -273q0 -115 -62.5 -210.5t-163.5 -141.5q-53 -24 -110 -30h-12v-3h-687v-659h-256v1434v0h904q159 0 272 -113zM1063 924v2q35 15 56.5 47.5t21.5 70.5q0 56 -39 95q-37 37 -92 37h-650v-265h650q27 0 53 13z" />
    <glyph glyph-name="Q" unicode="Q" 
d="M1536 717h-2q0 -259 -168 -461h168v-256h-709h-6q-145 0 -278 57t-229 153t-153 229t-57 278t57 278t153 229t229 153t278 57t278 -57t229 -153t153 -229t57 -278zM829 256q186 5 317.5 139.5t131.5 321.5q0 125 -62 231t-168 168t-231 62t-231 -62t-168 -168t-62 -231
t62 -231t168 -168t231 -62h12z" />
    <glyph glyph-name="R" unicode="R" horiz-adv-x="1495" 
d="M1055 662l205 -408l131 -256h-287l-131 256l-137 268l-7 13q-34 56 -91.5 89t-125.5 33h-256v-659h-256v1434h906q159 0 272 -113q113 -116 113 -275q0 -115 -62.5 -210.5t-163.5 -141.5q-53 -24 -110 -30zM356 911l650 2q27 0 53 13q35 15 56.5 47.5t21.5 70.5
q0 56 -39 95q-37 37 -92 37h-650v-265z" />
    <glyph glyph-name="S" unicode="S" horiz-adv-x="1560" 
d="M1458 1038l-256 -2v8q0 54 -38.5 93t-92.5 39h-582q-54 0 -92.5 -39t-38.5 -93v-8q0 -54 38.5 -92.5t92.5 -38.5h517q98 0 184 -39t149 -108q3 -3 8.5 -9.5t8.5 -9.5q102 -126 102 -286q0 -188 -132.5 -320.5t-319.5 -132.5h-449q-187 0 -320 133t-133 320h256
q0 -82 57.5 -139.5t139.5 -57.5h449q82 0 140 57.5t58 139.5t-58 139t-140 57h-517q-156 0 -268 109q-30 30 -49 61q-68 96 -68 219v9q0 160 112.5 273.5t272.5 113.5h582q160 0 273.5 -113.5t113.5 -273.5v-9z" />
    <glyph glyph-name="T" unicode="T" 
d="M102 1432h1432v-256h-588v-1178h-256v1178h-588v256z" />
    <glyph glyph-name="U" unicode="U" 
d="M1280 1434h256v-717q0 -145 -57 -278t-153 -229t-229 -153t-278 -57t-278 57t-229 153t-153 229t-57 278v717h256v-717q0 -125 62 -231t168 -168t231 -62t231 62t168 168t62 231v717z" />
    <glyph glyph-name="U" unicode="&#xdc;" 
d="M1280 1434h256v-717q0 -145 -57 -278t-153 -229t-229 -153t-278 -57t-278 57t-229 153t-153 229t-57 278v717h256v-717q0 -125 62 -231t168 -168t231 -62t231 62t168 168t62 231v717z" />
    <glyph glyph-name="U" unicode="&#xdb;" 
d="M1280 1434h256v-717q0 -145 -57 -278t-153 -229t-229 -153t-278 -57t-278 57t-229 153t-153 229t-57 278v717h256v-717q0 -125 62 -231t168 -168t231 -62t231 62t168 168t62 231v717z" />
    <glyph glyph-name="U" unicode="&#xda;" 
d="M1280 1434h256v-717q0 -145 -57 -278t-153 -229t-229 -153t-278 -57t-278 57t-229 153t-153 229t-57 278v717h256v-717q0 -125 62 -231t168 -168t231 -62t231 62t168 168t62 231v717z" />
    <glyph glyph-name="U" unicode="&#xd9;" 
d="M1280 1434h256v-717q0 -145 -57 -278t-153 -229t-229 -153t-278 -57t-278 57t-229 153t-153 229t-57 278v717h256v-717q0 -125 62 -231t168 -168t231 -62t231 62t168 168t62 231v717z" />
    <glyph glyph-name="V" unicode="V" horiz-adv-x="1505" 
d="M1196 1434h287l-131 -256l-600 -1178l-600 1178l-132 256h287l131 -256l314 -615l313 615z" />
    <glyph glyph-name="W" unicode="W" horiz-adv-x="2002" 
d="M1901 1434l-336 -1125l-92 -309v0l-189 262l-285 391l-282 -391l-189 -260v0l-92 307l-334 1125h267l258 -865v0l217 301l41 58l116 159l117 -159l41 -58l217 -301l258 865h267z" />
    <glyph glyph-name="X" unicode="X" horiz-adv-x="1536" 
d="M51 -6v4h4zM1485 -2v-4l-2 4h2zM1485 1432h4l-555 -719l553 -715h-324l-391 506l-391 -506h-324l551 715l-555 719h324l393 -510l393 510h322z" />
    <glyph glyph-name="Y" unicode="Y" horiz-adv-x="1476" 
d="M1133 1436h321l-555 -719l-31 -39v-676h-256v672l-34 43l-555 719h323l393 -510zM20 -4v4h5zM1454 -4l-2 4h2v-4z" />
    <glyph glyph-name="Y" unicode="&#xdd;" horiz-adv-x="1476" 
d="M1133 1436h321l-555 -719l-31 -39v-676h-256v672l-34 43l-555 719h323l393 -510zM20 -4v4h5zM1454 -4l-2 4h2v-4z" />
    <glyph glyph-name="Z" unicode="Z" 
d="M627 258h915v-256h-1108l-2 -2h-323l2 2l196 256l352 457l162 209l197 254h-912v256h1108h322l-199 -256l-356 -463l-162 -209z" />
    <glyph glyph-name="bracketleft" unicode="[" horiz-adv-x="720" 
d="M618 1262h-262v-1332h262v-256h-516v1844h516v-256z" />
    <glyph glyph-name="backslash" unicode="\" horiz-adv-x="876" 
d="M588 625l186 -656h-266l-186 656l-72 256l-148 522h267l147 -522z" />
    <glyph glyph-name="bracketright" unicode="]" horiz-adv-x="720" 
d="M102 1520h516v-1844h-516v256h263v1332h-263v256z" />
    <glyph glyph-name="underscore" unicode="_" 
d="M1536 -375h-1434v256h1434v-256z" />
    <glyph glyph-name="a" unicode="a" horiz-adv-x="1503" 
d="M1352 256l131 -256h-287l-131 256l-313 614l-314 -614l-131 -256h-287l132 256l600 1178z" />
    <glyph glyph-name="a" unicode="&#xe5;" horiz-adv-x="1503" 
d="M1352 256l131 -256h-287l-131 256l-313 614l-314 -614l-131 -256h-287l132 256l600 1178z" />
    <glyph glyph-name="a" unicode="&#xe4;" horiz-adv-x="1503" 
d="M1352 256l131 -256h-287l-131 256l-313 614l-314 -614l-131 -256h-287l132 256l600 1178z" />
    <glyph glyph-name="a" unicode="&#xe3;" horiz-adv-x="1503" 
d="M1352 256l131 -256h-287l-131 256l-313 614l-314 -614l-131 -256h-287l132 256l600 1178z" />
    <glyph glyph-name="a" unicode="&#xe2;" horiz-adv-x="1503" 
d="M1352 256l131 -256h-287l-131 256l-313 614l-314 -614l-131 -256h-287l132 256l600 1178z" />
    <glyph glyph-name="a" unicode="&#xe1;" horiz-adv-x="1503" 
d="M1352 256l131 -256h-287l-131 256l-313 614l-314 -614l-131 -256h-287l132 256l600 1178z" />
    <glyph glyph-name="a" unicode="&#xe0;" horiz-adv-x="1503" 
d="M1352 256l131 -256h-287l-131 256l-313 614l-314 -614l-131 -256h-287l132 256l600 1178z" />
    <glyph glyph-name="b" unicode="b" horiz-adv-x="1587" 
d="M1331 838q94 -63 149.5 -163t55.5 -218q0 -189 -134 -323t-323 -134h-977v0v1434h904q160 0 273.5 -113.5t113.5 -273.5q0 -115 -62 -209zM358 1178v-263h650q54 0 92.5 39t38.5 93t-38.5 92.5t-92.5 38.5h-650zM1079 256v2q83 0 142 59t59 142t-59 141.5t-142 58.5h-721
v-403h721z" />
    <glyph glyph-name="c" unicode="c" horiz-adv-x="1617" 
d="M799 1178q-125 0 -231 -62t-168 -168t-62 -231t62 -231t168 -168t231 -62h717v-256h-717q-145 0 -278 57t-229 153t-153 229t-57 278t57 278t153 229t229 153t278 57h717v-256h-717z" />
    <glyph glyph-name="c" unicode="&#xe7;" horiz-adv-x="1617" 
d="M799 1178q-125 0 -231 -62t-168 -168t-62 -231t62 -231t168 -168t231 -62h717v-256h-717q-145 0 -278 57t-229 153t-153 229t-57 278t57 278t153 229t229 153t278 57h717v-256h-717z" />
    <glyph glyph-name="d" unicode="d" 
d="M819 1434l-2 -2q146 0 278.5 -56.5t228.5 -152.5t153 -228.5t57 -277.5q0 -130 -44.5 -248.5t-125.5 -214.5q-12 -14 -41 -43q-98 -100 -228.5 -155.5t-275.5 -55.5h-717v1434h717zM817 254q125 0 231 62t168 168t62 231t-62 231t-168 168t-231 62h-461v-922h461z" />
    <glyph glyph-name="e" unicode="e" 
d="M489 1178q-54 0 -92.5 -38.5t-38.5 -92.5v-134h922v-256h-922v-270q0 -54 38.5 -92.5t92.5 -38.5h1047v-256h-1047q-160 0 -272.5 113.5t-112.5 273.5v660q0 160 112.5 273.5t272.5 113.5h1047v-256h-1047z" />
    <glyph glyph-name="e" unicode="&#xeb;" 
d="M489 1178q-54 0 -92.5 -38.5t-38.5 -92.5v-134h922v-256h-922v-270q0 -54 38.5 -92.5t92.5 -38.5h1047v-256h-1047q-160 0 -272.5 113.5t-112.5 273.5v660q0 160 112.5 273.5t272.5 113.5h1047v-256h-1047z" />
    <glyph glyph-name="e" unicode="&#xea;" 
d="M489 1178q-54 0 -92.5 -38.5t-38.5 -92.5v-134h922v-256h-922v-270q0 -54 38.5 -92.5t92.5 -38.5h1047v-256h-1047q-160 0 -272.5 113.5t-112.5 273.5v660q0 160 112.5 273.5t272.5 113.5h1047v-256h-1047z" />
    <glyph glyph-name="e" unicode="&#xe9;" 
d="M489 1178q-54 0 -92.5 -38.5t-38.5 -92.5v-134h922v-256h-922v-270q0 -54 38.5 -92.5t92.5 -38.5h1047v-256h-1047q-160 0 -272.5 113.5t-112.5 273.5v660q0 160 112.5 273.5t272.5 113.5h1047v-256h-1047z" />
    <glyph glyph-name="e" unicode="&#xe8;" 
d="M489 1178q-54 0 -92.5 -38.5t-38.5 -92.5v-134h922v-256h-922v-270q0 -54 38.5 -92.5t92.5 -38.5h1047v-256h-1047q-160 0 -272.5 113.5t-112.5 273.5v660q0 160 112.5 273.5t272.5 113.5h1047v-256h-1047z" />
    <glyph glyph-name="f" unicode="f" 
d="M489 1434l1049 2v-256h-1046q-54 0 -93 -38.5t-39 -92.5v-134h922v-256h-924v-657h-254v1045q0 160 112.5 273.5t272.5 113.5z" />
    <glyph glyph-name="g" unicode="g" 
d="M819 1178q-125 0 -231 -62t-168 -168t-62 -231t62 -231t168 -168t231 -62h461v274h-461v256h717v-786h-717q-145 0 -278 57t-229 153t-153 229t-57 278t57 278t153 229t229 153t278 57h717v-256h-717z" />
    <glyph glyph-name="h" unicode="h" 
d="M1280 1434h256v-1434h-256v657h-922v-657h-256v1434h256v-521h922v521z" />
    <glyph glyph-name="i" unicode="i" horiz-adv-x="460" 
d="M358 0h-256v1434h256v-1434z" />
    <glyph glyph-name="i" unicode="&#xef;" horiz-adv-x="460" 
d="M358 0h-256v1434h256v-1434z" />
    <glyph glyph-name="i" unicode="&#xee;" horiz-adv-x="460" 
d="M358 0h-256v1434h256v-1434z" />
    <glyph glyph-name="i" unicode="&#xed;" horiz-adv-x="460" 
d="M358 0h-256v1434h256v-1434z" />
    <glyph glyph-name="i" unicode="&#xec;" horiz-adv-x="460" 
d="M358 0h-256v1434h256v-1434z" />
    <glyph glyph-name="j" unicode="j" 
d="M1280 1434h256v-1047q0 -160 -113.5 -272.5t-273.5 -112.5h-660q-160 0 -273.5 112.5t-113.5 272.5v268h256v-268q0 -54 38.5 -92.5t92.5 -38.5h660q54 0 92.5 38.5t38.5 92.5v1047z" />
    <glyph glyph-name="k" unicode="k" 
d="M1536 1434l-627 -576l621 -858h-316l-495 684l-363 -330v-354h-256v1434h256v-734l211 193l191 174l399 367h379z" />
    <glyph glyph-name="l" unicode="l" horiz-adv-x="1386" 
d="M532 256l752 -2v-256h-727q-109 0 -201 47q-139 70 -206 209q-48 94 -48 201v977h256v-1002q9 -68 57.5 -116.5t116.5 -57.5z" />
    <glyph glyph-name="m" unicode="m" 
d="M1280 1237l256 197v-1434h-256v913l-252 -192l-209 -162l-209 162l-252 192v-913h-256v1434l256 -197l461 -354z" />
    <glyph glyph-name="n" unicode="n" 
d="M1280 1434l256 -2v-1434l-256 197l-922 710v-907h-256v1429l256 -196l922 -711v914z" />
    <glyph glyph-name="n" unicode="&#xf1;" 
d="M1280 1434l256 -2v-1434l-256 197l-922 710v-907h-256v1429l256 -196l922 -711v914z" />
    <glyph glyph-name="o" unicode="o" horiz-adv-x="1540" 
d="M770 1434q145 0 278 -57t229 -153t153 -229t57 -278t-57 -278t-153 -229t-229 -153t-278 -57t-278 57t-229 153t-153 229t-57 278t57 278t153 229t229 153t278 57zM770 256q125 0 231 62t168 168t62 231t-62 231t-168 168t-231 62t-231 -62t-168 -168t-62 -231t62 -231
t168 -168t231 -62z" />
    <glyph glyph-name="o" unicode="&#xf8;" horiz-adv-x="1540" 
d="M770 1434q145 0 278 -57t229 -153t153 -229t57 -278t-57 -278t-153 -229t-229 -153t-278 -57t-278 57t-229 153t-153 229t-57 278t57 278t153 229t229 153t278 57zM770 256q125 0 231 62t168 168t62 231t-62 231t-168 168t-231 62t-231 -62t-168 -168t-62 -231t62 -231
t168 -168t231 -62z" />
    <glyph glyph-name="o" unicode="&#xf6;" horiz-adv-x="1540" 
d="M770 1434q145 0 278 -57t229 -153t153 -229t57 -278t-57 -278t-153 -229t-229 -153t-278 -57t-278 57t-229 153t-153 229t-57 278t57 278t153 229t229 153t278 57zM770 256q125 0 231 62t168 168t62 231t-62 231t-168 168t-231 62t-231 -62t-168 -168t-62 -231t62 -231
t168 -168t231 -62z" />
    <glyph glyph-name="o" unicode="&#xf5;" horiz-adv-x="1540" 
d="M770 1434q145 0 278 -57t229 -153t153 -229t57 -278t-57 -278t-153 -229t-229 -153t-278 -57t-278 57t-229 153t-153 229t-57 278t57 278t153 229t229 153t278 57zM770 256q125 0 231 62t168 168t62 231t-62 231t-168 168t-231 62t-231 -62t-168 -168t-62 -231t62 -231
t168 -168t231 -62z" />
    <glyph glyph-name="o" unicode="&#xf4;" horiz-adv-x="1540" 
d="M770 1434q145 0 278 -57t229 -153t153 -229t57 -278t-57 -278t-153 -229t-229 -153t-278 -57t-278 57t-229 153t-153 229t-57 278t57 278t153 229t229 153t278 57zM770 256q125 0 231 62t168 168t62 231t-62 231t-168 168t-231 62t-231 -62t-168 -168t-62 -231t62 -231
t168 -168t231 -62z" />
    <glyph glyph-name="o" unicode="&#xf3;" horiz-adv-x="1540" 
d="M770 1434q145 0 278 -57t229 -153t153 -229t57 -278t-57 -278t-153 -229t-229 -153t-278 -57t-278 57t-229 153t-153 229t-57 278t57 278t153 229t229 153t278 57zM770 256q125 0 231 62t168 168t62 231t-62 231t-168 168t-231 62t-231 -62t-168 -168t-62 -231t62 -231
t168 -168t231 -62z" />
    <glyph glyph-name="o" unicode="&#xf2;" horiz-adv-x="1540" 
d="M770 1434q145 0 278 -57t229 -153t153 -229t57 -278t-57 -278t-153 -229t-229 -153t-278 -57t-278 57t-229 153t-153 229t-57 278t57 278t153 229t229 153t278 57zM770 256q125 0 231 62t168 168t62 231t-62 231t-168 168t-231 62t-231 -62t-168 -168t-62 -231t62 -231
t168 -168t231 -62z" />
    <glyph glyph-name="p" unicode="p" horiz-adv-x="1495" 
d="M1280 1321l2 -2q113 -116 113 -275q0 -115 -62.5 -210.5t-163.5 -141.5q-53 -24 -110 -30h-12v-3h-687v-659h-256v1434v0h904q159 0 272 -113zM1063 926v2q35 15 56.5 48t21.5 71q0 55 -39 94q-37 37 -92 37h-650v-265h650q27 0 53 13z" />
    <glyph glyph-name="q" unicode="q" 
d="M1536 717h-2q0 -259 -168 -461h168v-256h-709h-6q-145 0 -278 57t-229 153t-153 229t-57 278t57 278t153 229t229 153t278 57t278 -57t229 -153t153 -229t57 -278zM829 256q186 5 317.5 139.5t131.5 321.5q0 125 -62 231t-168 168t-231 62t-231 -62t-168 -168t-62 -231
t62 -231t168 -168t231 -62h12z" />
    <glyph glyph-name="r" unicode="r" horiz-adv-x="1495" 
d="M1055 662l205 -410l131 -256h-287l-131 256l-137 268l-7 12q-34 57 -91.5 90t-125.5 33h-256v-659h-256v1434h906q159 0 272 -113t113 -273q0 -115 -62.5 -210.5t-163.5 -141.5q-53 -24 -110 -30zM356 909l650 2q27 0 53 13q35 15 56.5 47.5t21.5 70.5q0 56 -39 95
q-37 37 -92 37h-650v-265z" />
    <glyph glyph-name="s" unicode="s" horiz-adv-x="1560" 
d="M1458 1038l-256 -2v8q0 54 -38.5 93t-92.5 39h-582q-54 0 -92.5 -39t-38.5 -93v-8q0 -54 38.5 -92.5t92.5 -38.5h517q98 0 184 -39t149 -108q3 -3 8.5 -9.5t8.5 -9.5q102 -126 102 -286q0 -188 -132.5 -320.5t-319.5 -132.5h-449q-187 0 -320 133t-133 320h256
q0 -82 57.5 -139.5t139.5 -57.5h449q82 0 140 57.5t58 139.5t-58 139t-140 57h-517q-156 0 -268 109q-30 30 -49 61q-68 96 -68 219v9q0 160 112.5 273.5t272.5 113.5h582q160 0 273.5 -113.5t113.5 -273.5v-9z" />
    <glyph glyph-name="s" unicode="&#xdf;" horiz-adv-x="1560" 
d="M1458 1038l-256 -2v8q0 54 -38.5 93t-92.5 39h-582q-54 0 -92.5 -39t-38.5 -93v-8q0 -54 38.5 -92.5t92.5 -38.5h517q98 0 184 -39t149 -108q3 -3 8.5 -9.5t8.5 -9.5q102 -126 102 -286q0 -188 -132.5 -320.5t-319.5 -132.5h-449q-187 0 -320 133t-133 320h256
q0 -82 57.5 -139.5t139.5 -57.5h449q82 0 140 57.5t58 139.5t-58 139t-140 57h-517q-156 0 -268 109q-30 30 -49 61q-68 96 -68 219v9q0 160 112.5 273.5t272.5 113.5h582q160 0 273.5 -113.5t113.5 -273.5v-9z" />
    <glyph glyph-name="t" unicode="t" 
d="M102 1432h1432v-256h-588v-1178h-256v1178h-588v256z" />
    <glyph glyph-name="u" unicode="u" 
d="M1280 1434h256v-717q0 -145 -57 -278t-153 -229t-229 -153t-278 -57t-278 57t-229 153t-153 229t-57 278v717h256v-717q0 -125 62 -231t168 -168t231 -62t231 62t168 168t62 231v717z" />
    <glyph glyph-name="u" unicode="&#xfc;" 
d="M1280 1434h256v-717q0 -145 -57 -278t-153 -229t-229 -153t-278 -57t-278 57t-229 153t-153 229t-57 278v717h256v-717q0 -125 62 -231t168 -168t231 -62t231 62t168 168t62 231v717z" />
    <glyph glyph-name="u" unicode="&#xfb;" 
d="M1280 1434h256v-717q0 -145 -57 -278t-153 -229t-229 -153t-278 -57t-278 57t-229 153t-153 229t-57 278v717h256v-717q0 -125 62 -231t168 -168t231 -62t231 62t168 168t62 231v717z" />
    <glyph glyph-name="u" unicode="&#xfa;" 
d="M1280 1434h256v-717q0 -145 -57 -278t-153 -229t-229 -153t-278 -57t-278 57t-229 153t-153 229t-57 278v717h256v-717q0 -125 62 -231t168 -168t231 -62t231 62t168 168t62 231v717z" />
    <glyph glyph-name="u" unicode="&#xf9;" 
d="M1280 1434h256v-717q0 -145 -57 -278t-153 -229t-229 -153t-278 -57t-278 57t-229 153t-153 229t-57 278v717h256v-717q0 -125 62 -231t168 -168t231 -62t231 62t168 168t62 231v717z" />
    <glyph glyph-name="v" unicode="v" horiz-adv-x="1503" 
d="M1194 1434h287l-131 -256l-600 -1178l-600 1178l-132 256h287l131 -256l314 -615l313 615z" />
    <glyph glyph-name="w" unicode="w" horiz-adv-x="2002" 
d="M1901 1434l-336 -1125l-92 -309v0l-189 262l-285 391l-282 -391l-189 -260v0l-92 307l-334 1125h267l258 -865v0l217 301l41 58l116 159l117 -159l41 -58l217 -301l258 865h267z" />
    <glyph glyph-name="x" unicode="x" horiz-adv-x="1536" 
d="M51 -6v4h4zM1485 -2v-4l-2 4h2zM1485 1432h4l-555 -719l553 -715h-324l-391 506l-391 -506h-324l551 715l-555 719h324l393 -510l393 510h322z" />
    <glyph glyph-name="y" unicode="y" 
d="M1212 1436h322l-555 -719l-31 -39v-676h-256v672l-35 43l-555 719h324l393 -510zM100 -4v4h4zM1534 -4l-2 4h2v-4z" />
    <glyph glyph-name="y" unicode="&#xff;" 
d="M1212 1436h322l-555 -719l-31 -39v-676h-256v672l-35 43l-555 719h324l393 -510zM100 -4v4h4zM1534 -4l-2 4h2v-4z" />
    <glyph glyph-name="y" unicode="&#xfd;" 
d="M1212 1436h322l-555 -719l-31 -39v-676h-256v672l-35 43l-555 719h324l393 -510zM100 -4v4h4zM1534 -4l-2 4h2v-4z" />
    <glyph glyph-name="z" unicode="z" 
d="M627 256h915v-256h-1108l-2 -2h-323l2 2l196 256l352 457l162 209l197 254h-912v256h1108h322l-199 -256l-356 -463l-162 -209z" />
    <glyph glyph-name="braceleft" unicode="{" horiz-adv-x="780" 
d="M561 -66l117 3v-256h-117q-29 0 -43 2q-109 15 -182.5 99.5t-73.5 197.5v456q-3 15 -15.5 25t-27.5 10h-117v256h117q15 0 27.5 10t15.5 25v457q0 113 73.5 197.5t182.5 99.5q14 2 43 2h117v-256h-117q-15 0 -27.5 -10t-15.5 -25v-459q0 -29 -2 -43q-9 -69 -51 -127
q42 -58 51 -127q2 -14 2 -43v-459q3 -15 15.5 -25t27.5 -10z" />
    <glyph glyph-name="braceright" unicode="}" horiz-adv-x="780" 
d="M561 748l117 -5v-231v-23h-117q-15 0 -27.5 -9.5t-15.5 -24.5v-457q0 -113 -73.5 -197.5t-182.5 -99.5q-14 -2 -43 -2h-117v256h117q15 0 27.5 10t15.5 25v459q0 29 2 43q9 68 51 126q-42 58 -51 127q-2 14 -2 43v459q-3 15 -15.5 25t-27.5 10h-117v256h117q29 0 43 -2
q109 -15 182.5 -99.5t73.5 -197.5v-457q3 -15 15.5 -24.5t27.5 -9.5z" />
    <glyph glyph-name="asciitilde" unicode="~" horiz-adv-x="1210" 
d="M678 770h-4q27 -13 50 -22t46.5 -12.5t40 -7t40.5 1.5t36.5 6t39.5 14t37.5 17.5t43.5 25t44.5 28t51.5 33.5v-252q-71 -58 -143 -86.5t-163 -26t-196 42.5v0q-27 9 -72 31q-96 44 -165 41q-38 -2 -82.5 -20.5t-76 -37.5t-104.5 -67v0v252q135 110 285 113q97 3 219 -43
v0q27 -9 72 -31z" />
    <glyph glyph-name="nonbreakingspace" unicode="&#xa0;" horiz-adv-x="997" 
 />
    <glyph glyph-name="sterling" unicode="&#xa3;" horiz-adv-x="1542" 
d="M1440 831h-256v183q0 54 -38.5 92.5t-92.5 38.5h-303q-54 0 -93 -38.5t-39 -92.5v-183h461v-256h-461v-352h824v-256h-1080v608h-258v256h258v183q0 64 23 131q40 114 140 185t225 71h303q125 0 224.5 -71t139.5 -185q23 -67 23 -131v-183z" />
    <glyph glyph-name="softhyphen" unicode="&#xad;" horiz-adv-x="204" 
 />
    <glyph glyph-name="multiply" unicode="&#xd7;" horiz-adv-x="1073" 
d="M971 930l-256 -254l254 -254l-181 -180l-251 254l-254 -254l-181 180l254 254l-254 254l181 180l254 -254l254 254z" />
    <glyph glyph-name="divide" unicode="&#xf7;" horiz-adv-x="1175" 
d="M1073 549h-971v256h971v-256zM717 907h-256v256h256v-256zM717 193h-256v256h256v-256z" />
    <glyph glyph-name="quoteleft" unicode="&#x2018;" horiz-adv-x="460" 
d="M358 1280h2v-256h-256v512h127z" />
    <glyph glyph-name="quoteright" unicode="&#x2019;" horiz-adv-x="460" 
d="M102 1536h254v-512h-127l-127 256v256z" />
    <glyph glyph-name="quotedblleft" unicode="&#x201c;" horiz-adv-x="786" 
d="M684 1278h2v-256h-256v512h127zM231 1534l129 -256v-256h-256v512h127z" />
    <glyph glyph-name="quotedblright" unicode="&#x201d;" horiz-adv-x="786" 
d="M102 1278l-2 256h256v-512h-127zM428 1534h254v-512h-127l-127 256v256z" />
    <glyph glyph-name="Euro" unicode="&#x20ac;" horiz-adv-x="1576" 
d="M1475 1147h-455q-190 0 -324 -131h533v-256h-664q-6 -37 -6 -74t2 -55h668v-256h-549q65 -71 153 -111.5t187 -40.5h455v-256h-455q-211 0 -384 112t-261 296h-271v256h201v55q0 49 2 74h-203v256h281q91 175 261 281t374 106h455v-256z" />
    </font>
</defs>
</svg>
