<?xml version="1.0" standalone="no"?>
<!DOCTYPE svg PUBLIC "-//W3C//DTD SVG 1.1//EN" "http://www.w3.org/Graphics/SVG/1.1/DTD/svg11.dtd" >
<svg xmlns="http://www.w3.org/2000/svg" xmlns:xlink="http://www.w3.org/1999/xlink" version="1.1">
<metadata>
Created by FontForge 20170731 at Mon Jun  7 19:33:47 2021
 By Aleksey,,,
Copyright 2018 Adobe Systems Incorporated. All rights reserved.
</metadata>
<defs>
<font id="QuantumRegular" horiz-adv-x="1611" >
  <font-face 
    font-family="Quantum"
    font-weight="400"
    font-stretch="normal"
    units-per-em="2048"
    panose-1="0 0 0 0 0 0 0 0 0 0"
    ascent="1638"
    descent="-410"
    x-height="991"
    cap-height="1407"
    bbox="88 -25 2005 1491"
    underline-thickness="0"
    underline-position="0"
    unicode-range="U+000A-00A0"
  />
<missing-glyph horiz-adv-x="1024" 
 />
    <glyph glyph-name=".notdef" horiz-adv-x="1024" 
 />
    <glyph glyph-name=".null" horiz-adv-x="0" 
 />
    <glyph glyph-name="nonmarkingreturn" horiz-adv-x="682" 
 />
    <glyph glyph-name="LF" unicode="&#xa;" horiz-adv-x="0" 
 />
    <glyph glyph-name="controlCR" unicode="&#xd;" horiz-adv-x="0" 
 />
    <glyph glyph-name="space" unicode=" " horiz-adv-x="972" 
 />
    <glyph glyph-name="exclam" unicode="!" horiz-adv-x="497" 
d="M102 1421h293v-1153l-293 293v860zM102 0v322l293 -293v-29h-293z" />
    <glyph glyph-name="zero" unicode="0" horiz-adv-x="1136" 
d="M1034 889l2 -400v-18v-18q-3 -53 -14 -95l-268 269v291q-5 75 -58.5 127.5t-126.5 52.5q-56 0 -102 -32.5t-68 -84.5l-206 207q55 74 126 119q112 73 250 73t250 -73q95 -63 153 -163t62 -218v-19v-18zM571 281l2 6q58 0 103.5 33t66.5 86l207 -207q-74 -106 -194 -160
q-86 -39 -183 -39q-96 0 -182 39q-120 52 -196.5 160t-85.5 243v31v31v373v30v31q3 42 12 86l268 -268v-303q8 -72 60 -122t122 -50z" />
    <glyph glyph-name="one" unicode="1" horiz-adv-x="1019" 
d="M618 0v645l300 -299v-346h-300zM496 1380l422 -2v-788l-300 299v192l-94 -94h-422z" />
    <glyph glyph-name="two" unicode="2" horiz-adv-x="1333" 
d="M324 797l-11 10q-12 53 -12 108q0 100 37 181q36 83 96 143q64 64 149.5 100.5t180.5 36.5q147 0 266 -84q115 -80 166 -213q31 -79 31 -161q0 -175 -115 -306q-12 -16 -20 -24l-203 203l14 14q41 47 41 110q0 72 -51 123.5t-123 51.5q-74 0 -125 -54q-49 -49 -49 -121
q0 -53 31 -98l2 -4l10 -16h-315zM786 289h400v-287h-1092l670 670l203 -203z" />
    <glyph glyph-name="three" unicode="3" horiz-adv-x="1021" 
d="M360 299v-2l285 -285q-38 -9 -76 -12h-24h-25h-416v299h76h180zM750 684l-5 -2q78 -52 124 -134.5t46 -178.5q0 -37 -6 -74q-24 -117 -110 -197l-211 211q21 15 28 45v15q0 43 -34 63q-18 12 -41 12l-160 164v156l160 156q23 0 41 12q34 20 34 63v17q-4 23 -21 38.5
t-40 18.5h-457v299h416h31h30q125 -9 219 -92t119 -205q7 -44 7 -74q0 -96 -46 -178.5t-124 -134.5z" />
    <glyph glyph-name="four" unicode="4" horiz-adv-x="1079" 
d="M680 1372h297v-973l-146 146h-729v827h297v-530h281v530zM680 0v455l297 -297v-158h-297z" />
    <glyph glyph-name="five" unicode="5" horiz-adv-x="1122" 
d="M571 297v2q58 19 95 59l208 -208q-109 -115 -264 -150h-506v297h467zM995 668l2 4q25 -77 25 -158q0 -111 -45 -213v-6l-252 252q-12 72 -63 123h-527h-29v164h3v536h874v-297h-580v-92v-6h338q99 -51 170 -144q58 -76 84 -163z" />
    <glyph glyph-name="six" unicode="6" horiz-adv-x="1052" 
d="M881 657v-2q71 -107 71 -233q0 -175 -124.5 -299.5t-299.5 -124.5q-68 0 -129 18q-48 15 -106 50q-75 53 -119 122q-67 98 -70 222v12v12v633l308 307h419l-430 -430v-115q65 19 129 19q126 0 234 -68l-227 -227h-7q-52 0 -89.5 -36t-39.5 -87v-10q2 -50 36 -85t83 -38h6
q52 0 89.5 37.5t37.5 89.5v6z" />
    <glyph glyph-name="seven" unicode="7" horiz-adv-x="1038" 
d="M217 0l172 561l234 -233l-101 -328h-305zM102 1352h834l-90 -293l-168 -549l-234 233l97 316h-439v293z" />
    <glyph glyph-name="eight" unicode="8" horiz-adv-x="1038" 
d="M831 692l-2 -4q99 -114 105 -258v-18q0 -172 -122 -294t-294 -122t-294 122t-122 294q0 158 105 276q-105 118 -105 277q0 125 72 231l223 -223v-6q0 -53 36.5 -89t88.5 -36h6q48 3 81.5 38.5t33.5 84.5q0 53 -36.5 89t-88.5 36l-225 225q103 67 227 67q172 0 294 -121.5
t122 -293.5q0 -124 -68 -228q-17 -27 -37 -47zM516 287q52 0 88.5 36.5t36.5 88.5t-36.5 88.5t-88.5 36.5t-88.5 -36.5t-36.5 -88.5t36.5 -88.5t88.5 -36.5z" />
    <glyph glyph-name="nine" unicode="9" horiz-adv-x="1042" 
d="M172 705v6q-68 104 -68 231q0 173 122.5 295.5t295.5 122.5q63 0 125 -19q52 -17 105 -49q71 -47 118 -118q65 -100 68 -222v-12v-12v-623l-303 -303h-414l424 424v113q-62 -19 -125 -19q-125 0 -229 68l223 223h6q51 0 87.5 35t37.5 86v10q-1 47 -35.5 81.5t-81.5 37.5
h-6q-52 0 -89.5 -37.5t-37.5 -89.5v-6z" />
    <glyph glyph-name="question" unicode="?" horiz-adv-x="1210" 
d="M500 350l82 -82l221 -221v-47h-303v350zM1069 1176l2 -5q35 -87 35 -186q0 -186 -123 -328q-24 -27 -51 -51q-24 -21 -47 -35l-82 -82v-192l-96 96l-93 92l-114 115v14l280 281q23 48 23 92q0 39 -15 74q-21 55 -71 90t-113 35q-76 0 -132.5 -50t-65.5 -124h-306
q9 200 155.5 339.5t348.5 139.5q156 0 282.5 -87.5t182.5 -227.5z" />
    <glyph glyph-name="A" unicode="A" horiz-adv-x="1943" 
d="M102 0l603 989l202 -336l-397 -653h-408zM973 1432l868 -1434h-407l-84 139l-580 961z" />
    <glyph glyph-name="A" unicode="&#xc5;" horiz-adv-x="1943" 
d="M102 0l603 989l202 -336l-397 -653h-408zM973 1432l868 -1434h-407l-84 139l-580 961z" />
    <glyph glyph-name="A" unicode="&#xc4;" horiz-adv-x="1943" 
d="M102 0l603 989l202 -336l-397 -653h-408zM973 1432l868 -1434h-407l-84 139l-580 961z" />
    <glyph glyph-name="A" unicode="&#xc3;" horiz-adv-x="1943" 
d="M102 0l603 989l202 -336l-397 -653h-408zM973 1432l868 -1434h-407l-84 139l-580 961z" />
    <glyph glyph-name="A" unicode="&#xc2;" horiz-adv-x="1943" 
d="M102 0l603 989l202 -336l-397 -653h-408zM973 1432l868 -1434h-407l-84 139l-580 961z" />
    <glyph glyph-name="A" unicode="&#xc1;" horiz-adv-x="1943" 
d="M102 0l603 989l202 -336l-397 -653h-408zM973 1432l868 -1434h-407l-84 139l-580 961z" />
    <glyph glyph-name="A" unicode="&#xc0;" horiz-adv-x="1943" 
d="M102 0l603 989l202 -336l-397 -653h-408zM973 1432l868 -1434h-407l-84 139l-580 961z" />
    <glyph glyph-name="B" unicode="B" horiz-adv-x="1423" 
d="M1321 993l-4 6q0 -168 -119 -290q119 -122 119 -291q0 -54 -12 -103q-32 -129 -134 -215t-235 -96h-31h-805v666l349 -348v-15h378q44 0 75.5 31.5t31.5 75.5t-31.5 75t-75.5 31h-378v-41l-349 348v582h805q143 0 256 -87.5t148 -225.5q12 -49 12 -103zM446 1098l3 -121
l92 -92h284q44 0 75.5 31t31.5 75t-31.5 75.5t-75.5 31.5h-379z" />
    <glyph glyph-name="C" unicode="C" horiz-adv-x="1642" 
d="M500 887l-15 -33l-264 264l15 19q101 146 258.5 228.5t336.5 82.5q256 0 457 -162q95 -76 159.5 -180t90.5 -223l8 -35h-368l-9 16q-27 67 -79 119q-109 109 -261 109q-151 0 -260 -109q-40 -40 -69 -96zM1167 586l11 10h368l-8 -35q-36 -159 -135 -285
q-95 -124 -240 -198q-37 -18 -49 -23q-134 -55 -283 -55q-145 0 -277 55t-235 158t-158 235t-55 277q0 124 41 242l15 43l303 -303v-11q9 -134 104 -229q96 -96 230 -105q16 -2 51 -2q49 3 108 23q22 7 33 14q54 28 96 70q54 54 80 119z" />
    <glyph glyph-name="C" unicode="&#xc7;" horiz-adv-x="1642" 
d="M500 887l-15 -33l-264 264l15 19q101 146 258.5 228.5t336.5 82.5q256 0 457 -162q95 -76 159.5 -180t90.5 -223l8 -35h-368l-9 16q-27 67 -79 119q-109 109 -261 109q-151 0 -260 -109q-40 -40 -69 -96zM1167 586l11 10h368l-8 -35q-36 -159 -135 -285
q-95 -124 -240 -198q-37 -18 -49 -23q-134 -55 -283 -55q-145 0 -277 55t-235 158t-158 235t-55 277q0 124 41 242l15 43l303 -303v-11q9 -134 104 -229q96 -96 230 -105q16 -2 51 -2q49 3 108 23q22 7 33 14q54 28 96 70q54 54 80 119z" />
    <glyph glyph-name="D" unicode="D" horiz-adv-x="1603" 
d="M1378 1104l6 -6q123 -180 123 -398q0 -215 -123 -395l-6 -6q-98 -141 -250.5 -221t-324.5 -80h-701v850l351 -350v-150h350h24q79 4 149 44t116 106v2q59 89 59 200q0 113 -61 201v0q-50 71 -125.5 111.5t-161.5 40.5h-350v-398l-351 351v399h701q172 0 324.5 -80
t250.5 -221z" />
    <glyph glyph-name="E" unicode="E" horiz-adv-x="1380" 
d="M451 348l825 -2v-348h-1174v797l349 -349v-98zM1276 526l-750 -2l-426 426v455h1176v-348h-789l183 -183h606v-348z" />
    <glyph glyph-name="E" unicode="&#xcb;" horiz-adv-x="1380" 
d="M451 348l825 -2v-348h-1174v797l349 -349v-98zM1276 526l-750 -2l-426 426v455h1176v-348h-789l183 -183h606v-348z" />
    <glyph glyph-name="E" unicode="&#xca;" horiz-adv-x="1380" 
d="M451 348l825 -2v-348h-1174v797l349 -349v-98zM1276 526l-750 -2l-426 426v455h1176v-348h-789l183 -183h606v-348z" />
    <glyph glyph-name="E" unicode="&#xc9;" horiz-adv-x="1380" 
d="M451 348l825 -2v-348h-1174v797l349 -349v-98zM1276 526l-750 -2l-426 426v455h1176v-348h-789l183 -183h606v-348z" />
    <glyph glyph-name="E" unicode="&#xc8;" horiz-adv-x="1380" 
d="M451 348l825 -2v-348h-1174v797l349 -349v-98zM1276 526l-750 -2l-426 426v455h1176v-348h-789l183 -183h606v-348z" />
    <glyph glyph-name="F" unicode="F" horiz-adv-x="1419" 
d="M102 1206l328 -329h500v-349h-479v-528h-349v1206zM100 1407h1215v-348h-866v-41l-349 348v41z" />
    <glyph glyph-name="G" unicode="G" 
d="M520 913l-16 -22l-250 250l16 20q100 118 240.5 183t296.5 65q219 0 397 -125q110 -75 185 -185t104 -241l8 -35h-360l-8 17q-26 62 -78 114q-105 105 -250 105t-250 -105q-20 -20 -35 -41zM883 590l628 -4v-584h-348v94q-162 -96 -354 -96q-141 0 -269.5 53.5
t-228.5 153.5t-153.5 228.5t-53.5 269.5q0 161 68 303l16 36l271 -270l-2 -14q-4 -36 -4 -55q0 -146 104 -250q105 -105 250 -105q111 0 203 64z" />
    <glyph glyph-name="H" unicode="H" horiz-adv-x="1431" 
d="M102 0v838l349 -349v-489h-349zM981 1407l348 -2v-1407h-348v528h-410l-469 469v412h349v-266l264 -264h266v530z" />
    <glyph glyph-name="I" unicode="I" horiz-adv-x="552" 
d="M102 1407h349v-522l-349 348v174zM102 0v1073l349 -348v-725h-349z" />
    <glyph glyph-name="I" unicode="&#xcf;" horiz-adv-x="552" 
d="M102 1407h349v-522l-349 348v174zM102 0v1073l349 -348v-725h-349z" />
    <glyph glyph-name="I" unicode="&#xce;" horiz-adv-x="552" 
d="M102 1407h349v-522l-349 348v174zM102 0v1073l349 -348v-725h-349z" />
    <glyph glyph-name="I" unicode="&#xcd;" horiz-adv-x="552" 
d="M102 1407h349v-522l-349 348v174zM102 0v1073l349 -348v-725h-349z" />
    <glyph glyph-name="I" unicode="&#xcc;" horiz-adv-x="552" 
d="M102 1407h349v-522l-349 348v174zM102 0v1073l349 -348v-725h-349z" />
    <glyph glyph-name="J" unicode="J" horiz-adv-x="1320" 
d="M868 1376l351 2v-686l-351 350v334zM868 885l338 -340v0q-3 -132 -64 -246.5t-165 -190t-232 -96.5q-20 -4 -32 -6h-25h-24h-13h-37q-15 0 -43 4h-12q-190 31 -320.5 174.5t-140.5 337.5h338q6 -32 19 -59q15 -36 41 -62l12 -12l6 -6q23 -19 45 -29h6q15 -7 45 -14h19h12
h12h13h12q75 7 129 61q52 52 61 121v363z" />
    <glyph glyph-name="K" unicode="K" horiz-adv-x="1656" 
d="M102 0v799l349 -348v-451h-349zM928 627l626 -625h-493l-959 959v448h17l557 -530l833 551v-418l-12 -8z" />
    <glyph glyph-name="L" unicode="L" horiz-adv-x="1183" 
d="M504 348l8 -8l340 -340h-750v1407h349v-1059h53zM664 348h417v-348h-69z" />
    <glyph glyph-name="M" unicode="M" 
d="M102 0v809l349 -348v-461h-349zM1454 1407h51v-1407h-348v621l-354 -357l-354 357l-349 348v438h56l649 -649z" />
    <glyph glyph-name="N" unicode="N" horiz-adv-x="1501" 
d="M102 0v809l349 -348v-461h-349zM1059 1106l340 340v-1448h-328l-14 14l-383 383l-223 223l-349 349v438h56l8 -8l885 -885v586z" />
    <glyph glyph-name="N" unicode="&#xd1;" horiz-adv-x="1501" 
d="M102 0v809l349 -348v-461h-349zM1059 1106l340 340v-1448h-328l-14 14l-383 383l-223 223l-349 349v438h56l8 -8l885 -885v586z" />
    <glyph glyph-name="O" unicode="O" 
d="M1305 1202l-2 2q100 -100 153 -228t53 -269q0 -242 -147 -433l-21 -24l-247 248l12 18q53 83 53 189q0 145 -104 249q-105 105 -250 105q-106 0 -189 -53l-18 -13l-248 248l25 21q191 147 432 147q141 0 269.5 -53.5t228.5 -153.5zM993 408l21 10l248 -248l-25 -20
q-193 -148 -432 -148q-141 0 -269.5 53.5t-228.5 153.5t-153.5 228.5t-53.5 269.5q0 239 148 432l20 24l248 -248l-12 -18q-53 -83 -53 -188q0 -146 104 -250q105 -105 250 -105q103 0 188 54z" />
    <glyph glyph-name="O" unicode="&#xd8;" 
d="M1305 1202l-2 2q100 -100 153 -228t53 -269q0 -242 -147 -433l-21 -24l-247 248l12 18q53 83 53 189q0 145 -104 249q-105 105 -250 105q-106 0 -189 -53l-18 -13l-248 248l25 21q191 147 432 147q141 0 269.5 -53.5t228.5 -153.5zM993 408l21 10l248 -248l-25 -20
q-193 -148 -432 -148q-141 0 -269.5 53.5t-228.5 153.5t-153.5 228.5t-53.5 269.5q0 239 148 432l20 24l248 -248l-12 -18q-53 -83 -53 -188q0 -146 104 -250q105 -105 250 -105q103 0 188 54z" />
    <glyph glyph-name="O" unicode="&#xd6;" 
d="M1305 1202l-2 2q100 -100 153 -228t53 -269q0 -242 -147 -433l-21 -24l-247 248l12 18q53 83 53 189q0 145 -104 249q-105 105 -250 105q-106 0 -189 -53l-18 -13l-248 248l25 21q191 147 432 147q141 0 269.5 -53.5t228.5 -153.5zM993 408l21 10l248 -248l-25 -20
q-193 -148 -432 -148q-141 0 -269.5 53.5t-228.5 153.5t-153.5 228.5t-53.5 269.5q0 239 148 432l20 24l248 -248l-12 -18q-53 -83 -53 -188q0 -146 104 -250q105 -105 250 -105q103 0 188 54z" />
    <glyph glyph-name="O" unicode="&#xd5;" 
d="M1305 1202l-2 2q100 -100 153 -228t53 -269q0 -242 -147 -433l-21 -24l-247 248l12 18q53 83 53 189q0 145 -104 249q-105 105 -250 105q-106 0 -189 -53l-18 -13l-248 248l25 21q191 147 432 147q141 0 269.5 -53.5t228.5 -153.5zM993 408l21 10l248 -248l-25 -20
q-193 -148 -432 -148q-141 0 -269.5 53.5t-228.5 153.5t-153.5 228.5t-53.5 269.5q0 239 148 432l20 24l248 -248l-12 -18q-53 -83 -53 -188q0 -146 104 -250q105 -105 250 -105q103 0 188 54z" />
    <glyph glyph-name="O" unicode="&#xd4;" 
d="M1305 1202l-2 2q100 -100 153 -228t53 -269q0 -242 -147 -433l-21 -24l-247 248l12 18q53 83 53 189q0 145 -104 249q-105 105 -250 105q-106 0 -189 -53l-18 -13l-248 248l25 21q191 147 432 147q141 0 269.5 -53.5t228.5 -153.5zM993 408l21 10l248 -248l-25 -20
q-193 -148 -432 -148q-141 0 -269.5 53.5t-228.5 153.5t-153.5 228.5t-53.5 269.5q0 239 148 432l20 24l248 -248l-12 -18q-53 -83 -53 -188q0 -146 104 -250q105 -105 250 -105q103 0 188 54z" />
    <glyph glyph-name="O" unicode="&#xd3;" 
d="M1305 1202l-2 2q100 -100 153 -228t53 -269q0 -242 -147 -433l-21 -24l-247 248l12 18q53 83 53 189q0 145 -104 249q-105 105 -250 105q-106 0 -189 -53l-18 -13l-248 248l25 21q191 147 432 147q141 0 269.5 -53.5t228.5 -153.5zM993 408l21 10l248 -248l-25 -20
q-193 -148 -432 -148q-141 0 -269.5 53.5t-228.5 153.5t-153.5 228.5t-53.5 269.5q0 239 148 432l20 24l248 -248l-12 -18q-53 -83 -53 -188q0 -146 104 -250q105 -105 250 -105q103 0 188 54z" />
    <glyph glyph-name="O" unicode="&#xd2;" 
d="M1305 1202l-2 2q100 -100 153 -228t53 -269q0 -242 -147 -433l-21 -24l-247 248l12 18q53 83 53 189q0 145 -104 249q-105 105 -250 105q-106 0 -189 -53l-18 -13l-248 248l25 21q191 147 432 147q141 0 269.5 -53.5t228.5 -153.5zM993 408l21 10l248 -248l-25 -20
q-193 -148 -432 -148q-141 0 -269.5 53.5t-228.5 153.5t-153.5 228.5t-53.5 269.5q0 239 148 432l20 24l248 -248l-12 -18q-53 -83 -53 -188q0 -146 104 -250q105 -105 250 -105q103 0 188 54z" />
    <glyph glyph-name="P" unicode="P" horiz-adv-x="1359" 
d="M1247 1087l-2 5q12 -47 12 -97q0 -142 -88 -256q-25 -30 -32 -37q-120 -120 -291 -120h-436l-308 307v514h746q170 0 291 -121q80 -80 108 -195zM872 922h2q25 31 25 71q0 13 -4 29q-6 30 -31 55q-35 35 -86 35h-329v-47l190 -191h137q51 0 86 35q7 7 10 13zM102 6v727
l349 -348v-379h-349z" />
    <glyph glyph-name="Q" unicode="Q" 
d="M1163 342l115 -121l223 -223h-698q-221 0 -404 129q-138 97 -217 248q-82 155 -82 330q0 132 48 254t137 219q57 63 133 114q174 115 385 115q141 0 269 -53.5t228 -153.5t153.5 -228.5t53.5 -269.5q0 -212 -114 -385l-19 -28l-254 254l8 18q31 70 31 146q0 145 -104 249
q-105 105 -250 105q-76 0 -146 -31q-56 -26 -104 -74q-6 -6 -18 -22q-84 -100 -84 -229q0 -146 104 -250q102 -102 246 -105h6h346z" />
    <glyph glyph-name="R" unicode="R" horiz-adv-x="1640" 
d="M999 528l539 -530h-541l-8 8l-540 539v-2l-349 348v514h940q44 0 80 -8q120 -24 209 -113q82 -82 109 -194q12 -46 12 -97q0 -29 -2 -43q-6 -174 -127 -295q-124 -124 -299 -127h-4h-19zM975 874l2 5q16 0 24 2q3 1 9.5 3t9.5 3q24 9 43 28q1 1 3 3.5t3 3.5v0v0l6 6
q2 2 2 6l6 12q11 29 11 51v7v6q0 8 -2 12q-1 3 -3.5 9t-3.5 9h-610l166 -166h334zM104 2v735l349 -348v-387h-349z" />
    <glyph glyph-name="S" unicode="S" 
d="M612 1407h897v-348h-548zM1491 563l-12 -22q18 -62 18 -127q0 -66 -18 -127q-43 -140 -156 -224q-117 -88 -264 -88h-969v349h969q37 0 63.5 26.5t26.5 63.5t-26.5 63.5t-63.5 26.5h-531q-65 0 -127 18q-102 29 -184 111t-111 184q-18 62 -18 127q0 66 18 127
q29 102 111 184t184 111q9 4 31 8l14 4l342 -342h-260q-37 0 -63.5 -26.5t-26.5 -63.5t26.5 -63.5t63.5 -26.5h531h6h2h6h4h13h6h2h6v0h12h6h2h13h6h12h2q4 0 12 -4h2l5 -2h6l12 -6h2q4 -1 12.5 -3t12.5 -3h2q2 -1 6 -3.5t6 -3.5h2l18 -6h7l12 -6l18 -12l11 -6l12 -6
q2 -1 6 -3.5t6 -3.5l2 -2q4 -3 12.5 -9t12.5 -9q1 -1 4.5 -3.5t5.5 -4.5l6 -6v0l4 -4q4 0 6 -2q1 -1 3 -3.5t3 -3.5q3 -3 9.5 -9t9.5 -9l6 -6l4 -4v-6q1 -1 3 -3.5t3 -3.5l2 -2q1 -2 3.5 -6t3.5 -6l6 -6l6 -6l2 -4q3 -6 9 -18.5t9 -18.5l2 -2q2 -4 6.5 -12.5t6.5 -12.5l2 -4
v0l6 -18v0v-6z" />
    <glyph glyph-name="T" unicode="T" 
d="M631 0v729l348 -348v-381h-348zM102 1407h1407v-348h-530v-518l-348 348v170h-529v348z" />
    <glyph glyph-name="U" unicode="U" 
d="M1161 1407l348 2v-704q0 -170 -73 -316q-74 -147 -197 -242l-20 -14l-252 252l28 18q31 19 62 50q104 104 104 249v705zM829 352l11 4l278 -278l-39 -17q-131 -55 -276 -55q-217 0 -397 123q-143 98 -224.5 252.5t-81.5 327.5v387l351 -351v-38q0 -146 104 -250
q105 -105 250 -105h24zM449 1413v-508l-351 350v158h351z" />
    <glyph glyph-name="U" unicode="&#xdc;" 
d="M1161 1407l348 2v-704q0 -170 -73 -316q-74 -147 -197 -242l-20 -14l-252 252l28 18q31 19 62 50q104 104 104 249v705zM829 352l11 4l278 -278l-39 -17q-131 -55 -276 -55q-217 0 -397 123q-143 98 -224.5 252.5t-81.5 327.5v387l351 -351v-38q0 -146 104 -250
q105 -105 250 -105h24zM449 1413v-508l-351 350v158h351z" />
    <glyph glyph-name="U" unicode="&#xdb;" 
d="M1161 1407l348 2v-704q0 -170 -73 -316q-74 -147 -197 -242l-20 -14l-252 252l28 18q31 19 62 50q104 104 104 249v705zM829 352l11 4l278 -278l-39 -17q-131 -55 -276 -55q-217 0 -397 123q-143 98 -224.5 252.5t-81.5 327.5v387l351 -351v-38q0 -146 104 -250
q105 -105 250 -105h24zM449 1413v-508l-351 350v158h351z" />
    <glyph glyph-name="U" unicode="&#xda;" 
d="M1161 1407l348 2v-704q0 -170 -73 -316q-74 -147 -197 -242l-20 -14l-252 252l28 18q31 19 62 50q104 104 104 249v705zM829 352l11 4l278 -278l-39 -17q-131 -55 -276 -55q-217 0 -397 123q-143 98 -224.5 252.5t-81.5 327.5v387l351 -351v-38q0 -146 104 -250
q105 -105 250 -105h24zM449 1413v-508l-351 350v158h351z" />
    <glyph glyph-name="U" unicode="&#xd9;" 
d="M1161 1407l348 2v-704q0 -170 -73 -316q-74 -147 -197 -242l-20 -14l-252 252l28 18q31 19 62 50q104 104 104 249v705zM829 352l11 4l278 -278l-39 -17q-131 -55 -276 -55q-217 0 -397 123q-143 98 -224.5 252.5t-81.5 327.5v387l351 -351v-38q0 -146 104 -250
q105 -105 250 -105h24zM449 1413v-508l-351 350v158h351z" />
    <glyph glyph-name="V" unicode="V" horiz-adv-x="1576" 
d="M487 1446l172 -363l322 -680l-6 -12l-187 -391l-686 1446h385zM1090 1444h387l-396 -834l-37 -75l-192 407l6 12z" />
    <glyph glyph-name="W" unicode="W" horiz-adv-x="2011" 
d="M1065 1159l119 -258l-426 -901l-656 1380h383l299 -628l211 446l27 55zM1526 1382h385l-469 -985l-189 -395l-28 61l-162 338l-2 5l172 360l18 41z" />
    <glyph glyph-name="X" unicode="X" horiz-adv-x="1990" 
d="M154 51l542 529l246 -246l-346 -334h-494zM1843 53l47 -45h-493l-611 615l-378 370v494l49 -49l565 -559l563 561l49 49v-494l-8 -8l-358 -356l446 -447z" />
    <glyph glyph-name="Y" unicode="Y" horiz-adv-x="2105" 
d="M879 0v471l348 -348v-123h-348zM1511 1407h494l-776 -776v-348l-47 47l-301 301l-777 776h494l8 -8l449 -449z" />
    <glyph glyph-name="Y" unicode="&#xdd;" horiz-adv-x="2105" 
d="M879 0v471l348 -348v-123h-348zM1511 1407h494l-776 -776v-348l-47 47l-301 301l-777 776h494l8 -8l449 -449z" />
    <glyph glyph-name="Z" unicode="Z" horiz-adv-x="2105" 
d="M944 348l-348 -348h-494l1059 1059h-829v348h1671zM756 0l348 348h635v-348h-983z" />
    <glyph glyph-name="a" unicode="a" horiz-adv-x="1431" 
d="M102 0l424 698l144 -237l-281 -461h-287zM715 1010l612 -1012h-287l-59 98l-410 678z" />
    <glyph glyph-name="a" unicode="&#xe5;" horiz-adv-x="1431" 
d="M102 0l424 698l144 -237l-281 -461h-287zM715 1010l612 -1012h-287l-59 98l-410 678z" />
    <glyph glyph-name="a" unicode="&#xe4;" horiz-adv-x="1431" 
d="M102 0l424 698l144 -237l-281 -461h-287zM715 1010l612 -1012h-287l-59 98l-410 678z" />
    <glyph glyph-name="a" unicode="&#xe3;" horiz-adv-x="1431" 
d="M102 0l424 698l144 -237l-281 -461h-287zM715 1010l612 -1012h-287l-59 98l-410 678z" />
    <glyph glyph-name="a" unicode="&#xe2;" horiz-adv-x="1431" 
d="M102 0l424 698l144 -237l-281 -461h-287zM715 1010l612 -1012h-287l-59 98l-410 678z" />
    <glyph glyph-name="a" unicode="&#xe1;" horiz-adv-x="1431" 
d="M102 0l424 698l144 -237l-281 -461h-287zM715 1010l612 -1012h-287l-59 98l-410 678z" />
    <glyph glyph-name="a" unicode="&#xe0;" horiz-adv-x="1431" 
d="M102 0l424 698l144 -237l-281 -461h-287zM715 1010l612 -1012h-287l-59 98l-410 678z" />
    <glyph glyph-name="b" unicode="b" horiz-adv-x="1064" 
d="M963 700v2q0 -117 -84 -204q84 -87 84 -205q0 -37 -9 -72q-23 -91 -94.5 -151.5t-165.5 -67.5h-24h-568v469l246 -246v-10h266q31 0 53.5 22.5t22.5 53.5t-22.5 53.5t-53.5 22.5h-266v-29l-246 246v409h568q101 0 180 -61.5t104 -159.5q9 -34 9 -72zM348 772v-86l66 -65
h200q31 0 53.5 22t22.5 53t-22.5 53.5t-53.5 22.5h-266z" />
    <glyph glyph-name="c" unicode="c" horiz-adv-x="1218" 
d="M381 625l-14 -27l-187 186l10 15q72 103 184 161t238 58q182 0 322 -115q140 -112 178 -282l6 -25h-260l-4 12q-18 47 -55 84q-76 76 -185 76q-108 0 -184 -76q-32 -32 -49 -67zM848 408l10 8h260l-6 -25q-24 -111 -94 -203q-69 -87 -170 -141q-22 -11 -37 -16
q-96 -41 -201 -41q-103 0 -196.5 38.5t-165.5 110.5t-111 166t-39 197q0 81 29 170l10 30l213 -213v-8q6 -94 74 -162q67 -67 162 -73h37q39 3 77 18q10 2 25 10q35 17 68 50q37 37 55 84z" />
    <glyph glyph-name="c" unicode="&#xe7;" horiz-adv-x="1218" 
d="M381 625l-14 -27l-187 186l10 15q72 103 184 161t238 58q182 0 322 -115q140 -112 178 -282l6 -25h-260l-4 12q-18 47 -55 84q-76 76 -185 76q-108 0 -184 -76q-32 -32 -49 -67zM848 408l10 8h260l-6 -25q-24 -111 -94 -203q-69 -87 -170 -141q-22 -11 -37 -16
q-96 -41 -201 -41q-103 0 -196.5 38.5t-165.5 110.5t-111 166t-39 197q0 81 29 170l10 30l213 -213v-8q6 -94 74 -162q67 -67 162 -73h37q39 3 77 18q10 2 25 10q35 17 68 50q37 37 55 84z" />
    <glyph glyph-name="d" unicode="d" horiz-adv-x="1191" 
d="M1001 778l-6 4q88 -127 88 -280q0 -154 -84 -279v-6q-69 -100 -176.5 -156.5t-228.5 -56.5h-494v598l246 -246v-104h248h18q57 3 105.5 30.5t81.5 73.5q43 61 43 142q0 80 -43 141v0q-35 51 -88.5 78.5t-114.5 27.5h-248v-280l-246 246v280h494q121 0 228.5 -56.5
t176.5 -156.5z" />
    <glyph glyph-name="e" unicode="e" horiz-adv-x="1032" 
d="M348 246h582v-246h-828v561l246 -246v-69zM930 373l-531 2l-299 299v319h828v-245h-555l129 -130h428v-245z" />
    <glyph glyph-name="e" unicode="&#xeb;" horiz-adv-x="1032" 
d="M348 246h582v-246h-828v561l246 -246v-69zM930 373l-531 2l-299 299v319h828v-245h-555l129 -130h428v-245z" />
    <glyph glyph-name="e" unicode="&#xea;" horiz-adv-x="1032" 
d="M348 246h582v-246h-828v561l246 -246v-69zM930 373l-531 2l-299 299v319h828v-245h-555l129 -130h428v-245z" />
    <glyph glyph-name="e" unicode="&#xe9;" horiz-adv-x="1032" 
d="M348 246h582v-246h-828v561l246 -246v-69zM930 373l-531 2l-299 299v319h828v-245h-555l129 -130h428v-245z" />
    <glyph glyph-name="e" unicode="&#xe8;" horiz-adv-x="1032" 
d="M348 246h582v-246h-828v561l246 -246v-69zM930 373l-531 2l-299 299v319h828v-245h-555l129 -130h428v-245z" />
    <glyph glyph-name="f" unicode="f" horiz-adv-x="1060" 
d="M102 850l232 -232h352v-245h-338v-373h-246v850zM102 991h856v-246h-610v-28l-246 246v28z" />
    <glyph glyph-name="g" unicode="g" horiz-adv-x="1196" 
d="M397 645l-12 -16l-176 176l12 14q70 84 169 130t208 46q153 0 283 -88q160 -111 202 -301l7 -24h-254l-5 12q-17 44 -53 80q-74 74 -178 74t-178 -74q-9 -9 -25 -29zM651 416h443v-412h-246v66q-115 -68 -250 -68q-207 0 -352 145q-70 70 -108 161.5t-38 191.5
q0 112 50 215l12 24l190 -190l-2 -10q-2 -12 -2 -37q0 -104 74 -178t178 -74q80 0 141 43z" />
    <glyph glyph-name="h" unicode="h" horiz-adv-x="1069" 
d="M102 0v592l246 -246v-346h-246zM721 993l246 -2v-991h-246v373h-289l-330 329v291h246v-188l187 -187h186v375z" />
    <glyph glyph-name="i" unicode="i" horiz-adv-x="450" 
d="M102 991h246v-368l-246 245v123zM102 0v758l246 -246v-512h-246z" />
    <glyph glyph-name="i" unicode="&#xef;" horiz-adv-x="450" 
d="M102 991h246v-368l-246 245v123zM102 0v758l246 -246v-512h-246z" />
    <glyph glyph-name="i" unicode="&#xee;" horiz-adv-x="450" 
d="M102 991h246v-368l-246 245v123zM102 0v758l246 -246v-512h-246z" />
    <glyph glyph-name="i" unicode="&#xed;" horiz-adv-x="450" 
d="M102 991h246v-368l-246 245v123zM102 0v758l246 -246v-512h-246z" />
    <glyph glyph-name="i" unicode="&#xec;" horiz-adv-x="450" 
d="M102 991h246v-368l-246 245v123zM102 0v758l246 -246v-512h-246z" />
    <glyph glyph-name="j" unicode="j" horiz-adv-x="991" 
d="M641 971h248v-484l-248 248v236zM641 623l246 -244v0q-3 -140 -96 -246t-230 -129q-16 -4 -24 -4h-19h-18h-6h-25q-11 0 -31 4h-6q-134 22 -226.5 123.5t-99.5 237.5h238q3 -25 12 -43q12 -24 31 -43q6 -6 8 -7l6 -6q10 -8 31 -18h6q19 -8 33 -10h12h6h7h6h6q52 5 90 43
q36 36 43 86v256z" />
    <glyph glyph-name="k" unicode="k" horiz-adv-x="1228" 
d="M102 0v563l246 -246v-317h-246zM684 440l440 -442h-348l-676 676v317h13l393 -373l588 390v-295l-9 -6z" />
    <glyph glyph-name="l" unicode="l" horiz-adv-x="894" 
d="M385 246l6 -6l240 -240h-529v991h246v-745h37zM498 246h295v-246h-50z" />
    <glyph glyph-name="m" unicode="m" horiz-adv-x="1196" 
d="M102 0v569l246 -245v-324h-246zM1057 991h39v-991h-246v436l-250 -250l-250 250l-246 246v309h39l457 -456z" />
    <glyph glyph-name="n" unicode="n" horiz-adv-x="1118" 
d="M102 0v569l246 -245v-324h-246zM776 780l240 240v-1020h-232l-10 10l-270 271l-158 157l-246 246v309h39l6 -6l625 -625v412z" />
    <glyph glyph-name="n" unicode="&#xf1;" horiz-adv-x="1118" 
d="M102 0v569l246 -245v-324h-246zM776 780l240 240v-1020h-232l-10 10l-270 271l-158 157l-246 246v309h39l6 -6l625 -625v412z" />
    <glyph glyph-name="o" unicode="o" horiz-adv-x="1196" 
d="M948 846l6 -6q70 -70 108 -161.5t38 -191.5q0 -167 -105 -303l-14 -18l-176 176l8 14q37 58 37 133q0 105 -74 179q-73 73 -178 73q-77 0 -133 -36l-14 -9l-177 176l19 15q135 104 303 104q207 0 352 -145zM737 279l8 14l177 -176l-19 -15q-135 -104 -303 -104
q-207 0 -352 145q-70 70 -108 161.5t-38 191.5q0 167 105 303l14 18l176 -176l-8 -14q-37 -58 -37 -133q0 -105 74 -179q73 -73 178 -73q75 0 133 37z" />
    <glyph glyph-name="o" unicode="&#xf8;" horiz-adv-x="1196" 
d="M948 846l6 -6q70 -70 108 -161.5t38 -191.5q0 -167 -105 -303l-14 -18l-176 176l8 14q37 58 37 133q0 105 -74 179q-73 73 -178 73q-77 0 -133 -36l-14 -9l-177 176l19 15q135 104 303 104q207 0 352 -145zM737 279l8 14l177 -176l-19 -15q-135 -104 -303 -104
q-207 0 -352 145q-70 70 -108 161.5t-38 191.5q0 167 105 303l14 18l176 -176l-8 -14q-37 -58 -37 -133q0 -105 74 -179q73 -73 178 -73q75 0 133 37z" />
    <glyph glyph-name="o" unicode="&#xf6;" horiz-adv-x="1196" 
d="M948 846l6 -6q70 -70 108 -161.5t38 -191.5q0 -167 -105 -303l-14 -18l-176 176l8 14q37 58 37 133q0 105 -74 179q-73 73 -178 73q-77 0 -133 -36l-14 -9l-177 176l19 15q135 104 303 104q207 0 352 -145zM737 279l8 14l177 -176l-19 -15q-135 -104 -303 -104
q-207 0 -352 145q-70 70 -108 161.5t-38 191.5q0 167 105 303l14 18l176 -176l-8 -14q-37 -58 -37 -133q0 -105 74 -179q73 -73 178 -73q75 0 133 37z" />
    <glyph glyph-name="o" unicode="&#xf5;" horiz-adv-x="1196" 
d="M948 846l6 -6q70 -70 108 -161.5t38 -191.5q0 -167 -105 -303l-14 -18l-176 176l8 14q37 58 37 133q0 105 -74 179q-73 73 -178 73q-77 0 -133 -36l-14 -9l-177 176l19 15q135 104 303 104q207 0 352 -145zM737 279l8 14l177 -176l-19 -15q-135 -104 -303 -104
q-207 0 -352 145q-70 70 -108 161.5t-38 191.5q0 167 105 303l14 18l176 -176l-8 -14q-37 -58 -37 -133q0 -105 74 -179q73 -73 178 -73q75 0 133 37z" />
    <glyph glyph-name="o" unicode="&#xf4;" horiz-adv-x="1196" 
d="M948 846l6 -6q70 -70 108 -161.5t38 -191.5q0 -167 -105 -303l-14 -18l-176 176l8 14q37 58 37 133q0 105 -74 179q-73 73 -178 73q-77 0 -133 -36l-14 -9l-177 176l19 15q135 104 303 104q207 0 352 -145zM737 279l8 14l177 -176l-19 -15q-135 -104 -303 -104
q-207 0 -352 145q-70 70 -108 161.5t-38 191.5q0 167 105 303l14 18l176 -176l-8 -14q-37 -58 -37 -133q0 -105 74 -179q73 -73 178 -73q75 0 133 37z" />
    <glyph glyph-name="o" unicode="&#xf3;" horiz-adv-x="1196" 
d="M948 846l6 -6q70 -70 108 -161.5t38 -191.5q0 -167 -105 -303l-14 -18l-176 176l8 14q37 58 37 133q0 105 -74 179q-73 73 -178 73q-77 0 -133 -36l-14 -9l-177 176l19 15q135 104 303 104q207 0 352 -145zM737 279l8 14l177 -176l-19 -15q-135 -104 -303 -104
q-207 0 -352 145q-70 70 -108 161.5t-38 191.5q0 167 105 303l14 18l176 -176l-8 -14q-37 -58 -37 -133q0 -105 74 -179q73 -73 178 -73q75 0 133 37z" />
    <glyph glyph-name="o" unicode="&#xf2;" horiz-adv-x="1196" 
d="M948 846l6 -6q70 -70 108 -161.5t38 -191.5q0 -167 -105 -303l-14 -18l-176 176l8 14q37 58 37 133q0 105 -74 179q-73 73 -178 73q-77 0 -133 -36l-14 -9l-177 176l19 15q135 104 303 104q207 0 352 -145zM737 279l8 14l177 -176l-19 -15q-135 -104 -303 -104
q-207 0 -352 145q-70 70 -108 161.5t-38 191.5q0 167 105 303l14 18l176 -176l-8 -14q-37 -58 -37 -133q0 -105 74 -179q73 -73 178 -73q75 0 133 37z" />
    <glyph glyph-name="p" unicode="p" horiz-adv-x="1019" 
d="M909 766v-2q9 -34 9 -68q0 -101 -62 -178q-6 -8 -22 -24q-86 -86 -205 -86h-307l-218 217v362h525q119 0 205 -86q57 -57 75 -135zM647 643v4q19 22 19 51q0 13 -2 19q-6 22 -23 39q-24 24 -59 24h-232v-32l135 -136h97q34 0 59 25zM104 2v514l246 -246v-268h-246z" />
    <glyph glyph-name="q" unicode="q" horiz-adv-x="1196" 
d="M850 240l80 -82l157 -158h-491q-157 0 -285 90q-98 70 -153 174q-58 113 -58 232q0 192 129 333q39 42 97 80q127 82 272 82q207 0 352 -145q146 -146 146 -352q0 -147 -82 -271l-15 -20l-178 178l6 12q23 54 23 103q0 104 -74 178t-178 74q-48 0 -102 -23
q-43 -18 -76 -51q-6 -6 -12 -15q-60 -69 -60 -161q0 -105 74 -179q73 -73 174 -73h4h244z" />
    <glyph glyph-name="r" unicode="r" horiz-adv-x="1216" 
d="M735 373l383 -377h-381l-6 6l-381 379l-246 246v362h664q28 0 55 -6q86 -16 148 -78q58 -58 76 -135q8 -31 8 -68q0 -20 -2 -30q-6 -123 -92 -209q-87 -87 -209 -90h-4h-13zM721 614l2 -10q12 0 18 2q5 0 13 4q16 6 30 19q1 1 3.5 3t3.5 3v0v0q0 4 2 6v6l6 12q6 15 6 35
v6v7v12l-6 12h-430l116 -117h236zM109 -14v518l245 -246v-272h-245z" />
    <glyph glyph-name="s" unicode="s" horiz-adv-x="1196" 
d="M461 991h633v-246h-387zM1081 397l33 -20q12 -43 12 -90t-12 -90q-28 -96 -110 -156q-83 -64 -185 -64h-682v246h682q26 0 45 19t19 45t-19 44.5t-45 18.5h-373q-46 0 -90 12q-74 21 -131 78t-78 131q-12 43 -12 91q0 46 12 90q21 74 78 131t131 78q20 5 23 6l10 2
l240 -240h-185q-26 0 -44.5 -18.5t-18.5 -44.5t18.5 -45t44.5 -19h373h6h2h2h9h2v0h10h6h8h4h6h13h2l2 -2v0h6q12 -4 16 -6h2q2 -1 6.5 -3t6.5 -3l12 -6h6q1 -1 3 -3.5t3 -3.5q2 -1 6.5 -3t6.5 -3l6 -4q4 -2 8 -6l6 -6h2q3 -2 9.5 -6t9.5 -6l6 -6q1 -1 3 -3.5t3 -3.5v0l2 -2
v0l6 -6l12 -12l2 -4v0v-6v-2q1 -1 3 -3.5t3 -3.5t3.5 -3t3.5 -3v-6l2 -2l12 -24v-2q1 -3 3 -9.5t3 -9.5l2 -4v0l4 -12v0v-6z" />
    <glyph glyph-name="s" unicode="&#xdf;" horiz-adv-x="1196" 
d="M461 991h633v-246h-387zM1081 397l33 -20q12 -43 12 -90t-12 -90q-28 -96 -110 -156q-83 -64 -185 -64h-682v246h682q26 0 45 19t19 45t-19 44.5t-45 18.5h-373q-46 0 -90 12q-74 21 -131 78t-78 131q-12 43 -12 91q0 46 12 90q21 74 78 131t131 78q20 5 23 6l10 2
l240 -240h-185q-26 0 -44.5 -18.5t-18.5 -44.5t18.5 -45t44.5 -19h373h6h2h2h9h2v0h10h6h8h4h6h13h2l2 -2v0h6q12 -4 16 -6h2q2 -1 6.5 -3t6.5 -3l12 -6h6q1 -1 3 -3.5t3 -3.5q2 -1 6.5 -3t6.5 -3l6 -4q4 -2 8 -6l6 -6h2q3 -2 9.5 -6t9.5 -6l6 -6q1 -1 3 -3.5t3 -3.5v0l2 -2
v0l6 -6l12 -12l2 -4v0v-6v-2q1 -1 3 -3.5t3 -3.5t3.5 -3t3.5 -3v-6l2 -2l12 -24v-2q1 -3 3 -9.5t3 -9.5l2 -4v0l4 -12v0v-6z" />
    <glyph glyph-name="t" unicode="t" horiz-adv-x="1196" 
d="M475 0v514l246 -246v-268h-246zM102 991h992v-246h-373v-364l-246 246v118h-373v246z" />
    <glyph glyph-name="u" unicode="u" horiz-adv-x="1196" 
d="M848 991l248 -2v-495q0 -114 -54 -222q-51 -102 -137 -170l-14 -10l-178 178l20 13q25 18 41 34q74 74 74 179v495zM616 244l2 4l197 -197l-27 -12q-93 -41 -194 -41q-152 0 -279 88q-101 69 -158 178t-57 232v272l246 -246v-26q0 -105 74 -179q73 -73 178 -73h18z
M342 993v-356l-246 246v110h246z" />
    <glyph glyph-name="u" unicode="&#xfc;" horiz-adv-x="1196" 
d="M848 991l248 -2v-495q0 -114 -54 -222q-51 -102 -137 -170l-14 -10l-178 178l20 13q25 18 41 34q74 74 74 179v495zM616 244l2 4l197 -197l-27 -12q-93 -41 -194 -41q-152 0 -279 88q-101 69 -158 178t-57 232v272l246 -246v-26q0 -105 74 -179q73 -73 178 -73h18z
M342 993v-356l-246 246v110h246z" />
    <glyph glyph-name="u" unicode="&#xfb;" horiz-adv-x="1196" 
d="M848 991l248 -2v-495q0 -114 -54 -222q-51 -102 -137 -170l-14 -10l-178 178l20 13q25 18 41 34q74 74 74 179v495zM616 244l2 4l197 -197l-27 -12q-93 -41 -194 -41q-152 0 -279 88q-101 69 -158 178t-57 232v272l246 -246v-26q0 -105 74 -179q73 -73 178 -73h18z
M342 993v-356l-246 246v110h246z" />
    <glyph glyph-name="u" unicode="&#xfa;" horiz-adv-x="1196" 
d="M848 991l248 -2v-495q0 -114 -54 -222q-51 -102 -137 -170l-14 -10l-178 178l20 13q25 18 41 34q74 74 74 179v495zM616 244l2 4l197 -197l-27 -12q-93 -41 -194 -41q-152 0 -279 88q-101 69 -158 178t-57 232v272l246 -246v-26q0 -105 74 -179q73 -73 178 -73h18z
M342 993v-356l-246 246v110h246z" />
    <glyph glyph-name="u" unicode="&#xf9;" horiz-adv-x="1196" 
d="M848 991l248 -2v-495q0 -114 -54 -222q-51 -102 -137 -170l-14 -10l-178 178l20 13q25 18 41 34q74 74 74 179v495zM616 244l2 4l197 -197l-27 -12q-93 -41 -194 -41q-152 0 -279 88q-101 69 -158 178t-57 232v272l246 -246v-26q0 -105 74 -179q73 -73 178 -73h18z
M342 993v-356l-246 246v110h246z" />
    <glyph glyph-name="v" unicode="v" horiz-adv-x="1173" 
d="M375 1018l119 -254l227 -479l-4 -9l-131 -276l-484 1018h273zM797 1018h272l-278 -588l-27 -53l-135 287l4 10z" />
    <glyph glyph-name="w" unicode="w" horiz-adv-x="1503" 
d="M795 834l88 -187l-308 -647l-471 993h275l215 -452l151 321l19 39zM1128 993l275 2l-336 -708l-135 -285l-21 45l-116 244l-2 2l125 258l14 29z" />
    <glyph glyph-name="x" unicode="x" horiz-adv-x="1462" 
d="M137 35l383 375l174 -174l-243 -236h-349zM1329 39l31 -33h-348l-430 432l-267 262v349l35 -35l400 -393l397 395l35 35v-349l-6 -6l-252 -250l315 -315z" />
    <glyph glyph-name="y" unicode="y" horiz-adv-x="1544" 
d="M649 0v334l246 -246v-88h-246zM1096 993h344l-547 -547v-243l-35 33l-211 210l-547 547h349l6 -6l317 -317z" />
    <glyph glyph-name="y" unicode="&#xff;" horiz-adv-x="1544" 
d="M649 0v334l246 -246v-88h-246zM1096 993h344l-547 -547v-243l-35 33l-211 210l-547 547h349l6 -6l317 -317z" />
    <glyph glyph-name="y" unicode="&#xfd;" horiz-adv-x="1544" 
d="M649 0v334l246 -246v-88h-246zM1096 993h344l-547 -547v-243l-35 33l-211 210l-547 547h349l6 -6l317 -317z" />
    <glyph glyph-name="z" unicode="z" horiz-adv-x="1544" 
d="M696 246h2l-245 -246h-349l746 745h-586v246h1178zM565 0l246 246h449v-246h-695z" />
    <glyph glyph-name="nonbreakingspace" unicode="&#xa0;" horiz-adv-x="972" 
 />
    </font>
</defs>
</svg>
